<?xml version="1.0" encoding="utf-8" standalone="no"?>
<!DOCTYPE svg PUBLIC "-//W3C//DTD SVG 1.1//EN"
  "http://www.w3.org/Graphics/SVG/1.1/DTD/svg11.dtd">
<svg xmlns:xlink="http://www.w3.org/1999/xlink" width="494.203125pt" height="212.51625pt" viewBox="0 0 494.203125 212.51625" xmlns="http://www.w3.org/2000/svg" version="1.1">
 <metadata>
  <rdf:RDF xmlns:dc="http://purl.org/dc/elements/1.1/" xmlns:cc="http://creativecommons.org/ns#" xmlns:rdf="http://www.w3.org/1999/02/22-rdf-syntax-ns#">
   <cc:Work>
    <dc:type rdf:resource="http://purl.org/dc/dcmitype/StillImage"/>
    <dc:date>2023-08-03T17:36:58.815316</dc:date>
    <dc:format>image/svg+xml</dc:format>
    <dc:creator>
     <cc:Agent>
      <dc:title>Matplotlib v3.7.1, https://matplotlib.org/</dc:title>
     </cc:Agent>
    </dc:creator>
   </cc:Work>
  </rdf:RDF>
 </metadata>
 <defs>
  <style type="text/css">*{stroke-linejoin: round; stroke-linecap: butt}</style>
 </defs>
 <g id="figure_1">
  <g id="patch_1">
   <path d="M 0 212.51625 
L 494.203125 212.51625 
L 494.203125 0 
L 0 0 
z
" style="fill: #ffffff"/>
  </g>
  <g id="axes_1">
   <g id="patch_2">
    <path d="M 40.603125 188.638125 
L 171.897243 188.638125 
L 171.897243 22.318125 
L 40.603125 22.318125 
z
" style="fill: #ffffff"/>
   </g>
   <g id="PolyCollection_1">
    <defs>
     <path id="maf1fa4bb17" d="M 83.384403 -45.237582 
L 76.598318 -45.237582 
L 76.264018 -46.36583 
L 75.918183 -47.494078 
L 75.562548 -48.622326 
L 75.198968 -49.750574 
L 74.82941 -50.878822 
L 74.455943 -52.007069 
L 74.080731 -53.135317 
L 73.706023 -54.263565 
L 73.33414 -55.391813 
L 72.967461 -56.520061 
L 72.608394 -57.648309 
L 72.259349 -58.776557 
L 71.922693 -59.904805 
L 71.600705 -61.033053 
L 71.295528 -62.161301 
L 71.009117 -63.289549 
L 70.743189 -64.417796 
L 70.499181 -65.546044 
L 70.278224 -66.674292 
L 70.081123 -67.80254 
L 69.908355 -68.930788 
L 69.760085 -70.059036 
L 69.636196 -71.187284 
L 69.536328 -72.315532 
L 69.45993 -73.44378 
L 69.40631 -74.572028 
L 69.37469 -75.700276 
L 69.364242 -76.828523 
L 69.374123 -77.956771 
L 69.403483 -79.085019 
L 69.451466 -80.213267 
L 69.517177 -81.341515 
L 69.599646 -82.469763 
L 69.697766 -83.598011 
L 69.810225 -84.726259 
L 69.935439 -85.854507 
L 70.071483 -86.982755 
L 70.21604 -88.111003 
L 70.366358 -89.23925 
L 70.519246 -90.367498 
L 70.671089 -91.495746 
L 70.817897 -92.623994 
L 70.95539 -93.752242 
L 71.079111 -94.88049 
L 71.184562 -96.008738 
L 71.267363 -97.136986 
L 71.323423 -98.265234 
L 71.349105 -99.393482 
L 71.341393 -100.52173 
L 71.298034 -101.649977 
L 71.217657 -102.778225 
L 71.099862 -103.906473 
L 70.945269 -105.034721 
L 70.755526 -106.162969 
L 70.533285 -107.291217 
L 70.282135 -108.419465 
L 70.006506 -109.547713 
L 69.711547 -110.675961 
L 69.402986 -111.804209 
L 69.086974 -112.932457 
L 68.769929 -114.060704 
L 68.458379 -115.188952 
L 68.158813 -116.3172 
L 67.877538 -117.445448 
L 67.620558 -118.573696 
L 67.393461 -119.701944 
L 67.201322 -120.830192 
L 67.048627 -121.95844 
L 66.939207 -123.086688 
L 66.876186 -124.214936 
L 66.861949 -125.343184 
L 66.898115 -126.471431 
L 66.985529 -127.599679 
L 67.124267 -128.727927 
L 67.313646 -129.856175 
L 67.552256 -130.984423 
L 67.837996 -132.112671 
L 68.168128 -133.240919 
L 68.539337 -134.369167 
L 68.947797 -135.497415 
L 69.389254 -136.625663 
L 69.859105 -137.753911 
L 70.352488 -138.882158 
L 70.864369 -140.010406 
L 71.389635 -141.138654 
L 71.923183 -142.266902 
L 72.460003 -143.39515 
L 72.995265 -144.523398 
L 73.524393 -145.651646 
L 74.043134 -146.779894 
L 74.547619 -147.908142 
L 75.034415 -149.03639 
L 75.500562 -150.164638 
L 75.943601 -151.292885 
L 76.36159 -152.421133 
L 76.753101 -153.549381 
L 77.11721 -154.677629 
L 77.453473 -155.805877 
L 77.761891 -156.934125 
L 82.22083 -156.934125 
L 82.22083 -156.934125 
L 82.529248 -155.805877 
L 82.865511 -154.677629 
L 83.22962 -153.549381 
L 83.62113 -152.421133 
L 84.039119 -151.292885 
L 84.482159 -150.164638 
L 84.948306 -149.03639 
L 85.435102 -147.908142 
L 85.939587 -146.779894 
L 86.458327 -145.651646 
L 86.987455 -144.523398 
L 87.522717 -143.39515 
L 88.059538 -142.266902 
L 88.593085 -141.138654 
L 89.118352 -140.010406 
L 89.630233 -138.882158 
L 90.123616 -137.753911 
L 90.593467 -136.625663 
L 91.034924 -135.497415 
L 91.443384 -134.369167 
L 91.814592 -133.240919 
L 92.144725 -132.112671 
L 92.430465 -130.984423 
L 92.669074 -129.856175 
L 92.858453 -128.727927 
L 92.997191 -127.599679 
L 93.084606 -126.471431 
L 93.120772 -125.343184 
L 93.106535 -124.214936 
L 93.043514 -123.086688 
L 92.934094 -121.95844 
L 92.781399 -120.830192 
L 92.58926 -119.701944 
L 92.362163 -118.573696 
L 92.105183 -117.445448 
L 91.823908 -116.3172 
L 91.524341 -115.188952 
L 91.212792 -114.060704 
L 90.895747 -112.932457 
L 90.579735 -111.804209 
L 90.271173 -110.675961 
L 89.976215 -109.547713 
L 89.700585 -108.419465 
L 89.449435 -107.291217 
L 89.227194 -106.162969 
L 89.037451 -105.034721 
L 88.882858 -103.906473 
L 88.765064 -102.778225 
L 88.684687 -101.649977 
L 88.641328 -100.52173 
L 88.633616 -99.393482 
L 88.659298 -98.265234 
L 88.715357 -97.136986 
L 88.798159 -96.008738 
L 88.90361 -94.88049 
L 89.027331 -93.752242 
L 89.164824 -92.623994 
L 89.311632 -91.495746 
L 89.463474 -90.367498 
L 89.616362 -89.23925 
L 89.766681 -88.111003 
L 89.911237 -86.982755 
L 90.047282 -85.854507 
L 90.172496 -84.726259 
L 90.284955 -83.598011 
L 90.383074 -82.469763 
L 90.465543 -81.341515 
L 90.531255 -80.213267 
L 90.579237 -79.085019 
L 90.608598 -77.956771 
L 90.618478 -76.828523 
L 90.60803 -75.700276 
L 90.57641 -74.572028 
L 90.522791 -73.44378 
L 90.446393 -72.315532 
L 90.346525 -71.187284 
L 90.222636 -70.059036 
L 90.074366 -68.930788 
L 89.901598 -67.80254 
L 89.704496 -66.674292 
L 89.48354 -65.546044 
L 89.239532 -64.417796 
L 88.973603 -63.289549 
L 88.687192 -62.161301 
L 88.382016 -61.033053 
L 88.060028 -59.904805 
L 87.723371 -58.776557 
L 87.374326 -57.648309 
L 87.01526 -56.520061 
L 86.648581 -55.391813 
L 86.276698 -54.263565 
L 85.901989 -53.135317 
L 85.526777 -52.007069 
L 85.153311 -50.878822 
L 84.783753 -49.750574 
L 84.420173 -48.622326 
L 84.064537 -47.494078 
L 83.718703 -46.36583 
L 83.384403 -45.237582 
z
" style="stroke: #76b900"/>
    </defs>
    <g clip-path="url(#pc957a28cf8)">
     <use xlink:href="#maf1fa4bb17" x="0" y="212.51625" style="fill: #76b900; stroke: #76b900"/>
    </g>
   </g>
   <g id="PolyCollection_2">
    <defs>
     <path id="m88f78ff77c" d="M 136.909924 -45.755072 
L 128.10809 -45.755072 
L 127.846122 -46.959378 
L 127.586383 -48.163684 
L 127.329797 -49.36799 
L 127.077116 -50.572296 
L 126.828907 -51.776602 
L 126.585571 -52.980908 
L 126.347353 -54.185215 
L 126.114374 -55.389521 
L 125.886672 -56.593827 
L 125.664243 -57.798133 
L 125.447088 -59.002439 
L 125.235271 -60.206745 
L 125.028959 -61.411051 
L 124.828473 -62.615357 
L 124.634327 -63.819663 
L 124.447248 -65.023969 
L 124.268201 -66.228275 
L 124.098387 -67.432581 
L 123.939231 -68.636887 
L 123.792357 -69.841193 
L 123.65955 -71.0455 
L 123.542698 -72.249806 
L 123.44374 -73.454112 
L 123.364589 -74.658418 
L 123.307061 -75.862724 
L 123.272806 -77.06703 
L 123.263234 -78.271336 
L 123.279451 -79.475642 
L 123.322207 -80.679948 
L 123.391855 -81.884254 
L 123.488317 -83.08856 
L 123.611075 -84.292866 
L 123.759174 -85.497172 
L 123.931231 -86.701478 
L 124.125474 -87.905785 
L 124.339774 -89.110091 
L 124.571704 -90.314397 
L 124.818588 -91.518703 
L 125.077566 -92.723009 
L 125.34565 -93.927315 
L 125.619784 -95.131621 
L 125.896895 -96.335927 
L 126.173938 -97.540233 
L 126.447932 -98.744539 
L 126.715987 -99.948845 
L 126.975322 -101.153151 
L 127.223274 -102.357457 
L 127.457294 -103.561763 
L 127.674945 -104.76607 
L 127.873889 -105.970376 
L 128.051876 -107.174682 
L 128.206728 -108.378988 
L 128.336328 -109.583294 
L 128.438617 -110.7876 
L 128.511594 -111.991906 
L 128.553321 -113.196212 
L 128.561946 -114.400518 
L 128.535728 -115.604824 
L 128.473077 -116.80913 
L 128.372604 -118.013436 
L 128.233174 -119.217742 
L 128.053974 -120.422048 
L 127.83458 -121.626355 
L 127.575033 -122.830661 
L 127.275902 -124.034967 
L 126.938359 -125.239273 
L 126.564232 -126.443579 
L 126.156057 -127.647885 
L 125.717106 -128.852191 
L 125.251408 -130.056497 
L 124.763734 -131.260803 
L 124.259576 -132.465109 
L 123.745085 -133.669415 
L 123.226996 -134.873721 
L 122.712522 -136.078027 
L 122.209227 -137.282333 
L 121.724878 -138.48664 
L 121.267281 -139.690946 
L 120.844106 -140.895252 
L 120.462705 -142.099558 
L 120.129931 -143.303864 
L 119.85196 -144.50817 
L 119.634135 -145.712476 
L 119.480818 -146.916782 
L 119.395277 -148.121088 
L 119.379596 -149.325394 
L 119.434618 -150.5297 
L 119.559931 -151.734006 
L 119.753883 -152.938312 
L 120.013633 -154.142618 
L 120.335238 -155.346925 
L 120.713769 -156.551231 
L 121.143453 -157.755537 
L 121.617831 -158.959843 
L 122.129933 -160.164149 
L 122.672462 -161.368455 
L 123.237969 -162.572761 
L 123.819035 -163.777067 
L 124.408432 -164.981373 
L 140.609583 -164.981373 
L 140.609583 -164.981373 
L 141.19898 -163.777067 
L 141.780046 -162.572761 
L 142.345553 -161.368455 
L 142.888082 -160.164149 
L 143.400184 -158.959843 
L 143.874562 -157.755537 
L 144.304246 -156.551231 
L 144.682777 -155.346925 
L 145.004382 -154.142618 
L 145.264131 -152.938312 
L 145.458083 -151.734006 
L 145.583397 -150.5297 
L 145.638419 -149.325394 
L 145.622737 -148.121088 
L 145.537197 -146.916782 
L 145.38388 -145.712476 
L 145.166055 -144.50817 
L 144.888084 -143.303864 
L 144.555309 -142.099558 
L 144.173909 -140.895252 
L 143.750734 -139.690946 
L 143.293137 -138.48664 
L 142.808788 -137.282333 
L 142.305493 -136.078027 
L 141.791019 -134.873721 
L 141.27293 -133.669415 
L 140.758439 -132.465109 
L 140.25428 -131.260803 
L 139.766607 -130.056497 
L 139.300908 -128.852191 
L 138.861958 -127.647885 
L 138.453783 -126.443579 
L 138.079656 -125.239273 
L 137.742113 -124.034967 
L 137.442982 -122.830661 
L 137.183434 -121.626355 
L 136.964041 -120.422048 
L 136.784841 -119.217742 
L 136.645411 -118.013436 
L 136.544937 -116.80913 
L 136.482287 -115.604824 
L 136.456069 -114.400518 
L 136.464694 -113.196212 
L 136.506421 -111.991906 
L 136.579398 -110.7876 
L 136.681687 -109.583294 
L 136.811287 -108.378988 
L 136.966138 -107.174682 
L 137.144125 -105.970376 
L 137.34307 -104.76607 
L 137.560721 -103.561763 
L 137.794741 -102.357457 
L 138.042692 -101.153151 
L 138.302028 -99.948845 
L 138.570083 -98.744539 
L 138.844077 -97.540233 
L 139.12112 -96.335927 
L 139.398231 -95.131621 
L 139.672365 -93.927315 
L 139.940449 -92.723009 
L 140.199427 -91.518703 
L 140.446311 -90.314397 
L 140.678241 -89.110091 
L 140.892541 -87.905785 
L 141.086784 -86.701478 
L 141.258841 -85.497172 
L 141.406939 -84.292866 
L 141.529698 -83.08856 
L 141.62616 -81.884254 
L 141.695807 -80.679948 
L 141.738564 -79.475642 
L 141.754781 -78.271336 
L 141.745208 -77.06703 
L 141.710953 -75.862724 
L 141.653426 -74.658418 
L 141.574274 -73.454112 
L 141.475316 -72.249806 
L 141.358465 -71.0455 
L 141.225657 -69.841193 
L 141.078784 -68.636887 
L 140.919628 -67.432581 
L 140.749814 -66.228275 
L 140.570767 -65.023969 
L 140.383688 -63.819663 
L 140.189541 -62.615357 
L 139.989056 -61.411051 
L 139.782744 -60.206745 
L 139.570926 -59.002439 
L 139.353772 -57.798133 
L 139.131342 -56.593827 
L 138.903641 -55.389521 
L 138.670662 -54.185215 
L 138.432444 -52.980908 
L 138.189107 -51.776602 
L 137.940899 -50.572296 
L 137.688217 -49.36799 
L 137.431632 -48.163684 
L 137.171892 -46.959378 
L 136.909924 -45.755072 
z
" style="stroke: #ed1c24"/>
    </defs>
    <g clip-path="url(#pc957a28cf8)">
     <use xlink:href="#m88f78ff77c" x="0" y="212.51625" style="fill: #ed1c24; stroke: #ed1c24"/>
    </g>
   </g>
   <g id="matplotlib.axis_1">
    <g id="xtick_1">
     <g id="line2d_1">
      <path d="M 79.99136 188.638125 
L 79.99136 22.318125 
" clip-path="url(#pc957a28cf8)" style="fill: none; stroke-dasharray: 1.85,0.8; stroke-dashoffset: 0; stroke: #b0b0b0; stroke-width: 0.5"/>
     </g>
     <g id="line2d_2">
      <defs>
       <path id="m05ecd91eff" d="M 0 0 
L 0 3.5 
" style="stroke: #000000; stroke-width: 0.8"/>
      </defs>
      <g>
       <use xlink:href="#m05ecd91eff" x="79.99136" y="188.638125" style="stroke: #000000; stroke-width: 0.8"/>
      </g>
     </g>
     <g id="text_1">
      <!-- PMD -->
      <g transform="translate(68.812454 203.236563) scale(0.1 -0.1)">
       <defs>
        <path id="DejaVuSans-50" d="M 1259 4147 
L 1259 2394 
L 2053 2394 
Q 2494 2394 2734 2622 
Q 2975 2850 2975 3272 
Q 2975 3691 2734 3919 
Q 2494 4147 2053 4147 
L 1259 4147 
z
M 628 4666 
L 2053 4666 
Q 2838 4666 3239 4311 
Q 3641 3956 3641 3272 
Q 3641 2581 3239 2228 
Q 2838 1875 2053 1875 
L 1259 1875 
L 1259 0 
L 628 0 
L 628 4666 
z
" transform="scale(0.015625)"/>
        <path id="DejaVuSans-4d" d="M 628 4666 
L 1569 4666 
L 2759 1491 
L 3956 4666 
L 4897 4666 
L 4897 0 
L 4281 0 
L 4281 4097 
L 3078 897 
L 2444 897 
L 1241 4097 
L 1241 0 
L 628 0 
L 628 4666 
z
" transform="scale(0.015625)"/>
        <path id="DejaVuSans-44" d="M 1259 4147 
L 1259 519 
L 2022 519 
Q 2988 519 3436 956 
Q 3884 1394 3884 2338 
Q 3884 3275 3436 3711 
Q 2988 4147 2022 4147 
L 1259 4147 
z
M 628 4666 
L 1925 4666 
Q 3281 4666 3915 4102 
Q 4550 3538 4550 2338 
Q 4550 1131 3912 565 
Q 3275 0 1925 0 
L 628 0 
L 628 4666 
z
" transform="scale(0.015625)"/>
       </defs>
       <use xlink:href="#DejaVuSans-50"/>
       <use xlink:href="#DejaVuSans-4d" x="60.302734"/>
       <use xlink:href="#DejaVuSans-44" x="146.582031"/>
      </g>
     </g>
    </g>
    <g id="xtick_2">
     <g id="line2d_3">
      <path d="M 132.509007 188.638125 
L 132.509007 22.318125 
" clip-path="url(#pc957a28cf8)" style="fill: none; stroke-dasharray: 1.85,0.8; stroke-dashoffset: 0; stroke: #b0b0b0; stroke-width: 0.5"/>
     </g>
     <g id="line2d_4">
      <g>
       <use xlink:href="#m05ecd91eff" x="132.509007" y="188.638125" style="stroke: #000000; stroke-width: 0.8"/>
      </g>
     </g>
     <g id="text_2">
      <!-- Square wave -->
      <g transform="translate(100.130101 203.236563) scale(0.1 -0.1)">
       <defs>
        <path id="DejaVuSans-53" d="M 3425 4513 
L 3425 3897 
Q 3066 4069 2747 4153 
Q 2428 4238 2131 4238 
Q 1616 4238 1336 4038 
Q 1056 3838 1056 3469 
Q 1056 3159 1242 3001 
Q 1428 2844 1947 2747 
L 2328 2669 
Q 3034 2534 3370 2195 
Q 3706 1856 3706 1288 
Q 3706 609 3251 259 
Q 2797 -91 1919 -91 
Q 1588 -91 1214 -16 
Q 841 59 441 206 
L 441 856 
Q 825 641 1194 531 
Q 1563 422 1919 422 
Q 2459 422 2753 634 
Q 3047 847 3047 1241 
Q 3047 1584 2836 1778 
Q 2625 1972 2144 2069 
L 1759 2144 
Q 1053 2284 737 2584 
Q 422 2884 422 3419 
Q 422 4038 858 4394 
Q 1294 4750 2059 4750 
Q 2388 4750 2728 4690 
Q 3069 4631 3425 4513 
z
" transform="scale(0.015625)"/>
        <path id="DejaVuSans-71" d="M 947 1747 
Q 947 1113 1208 752 
Q 1469 391 1925 391 
Q 2381 391 2643 752 
Q 2906 1113 2906 1747 
Q 2906 2381 2643 2742 
Q 2381 3103 1925 3103 
Q 1469 3103 1208 2742 
Q 947 2381 947 1747 
z
M 2906 525 
Q 2725 213 2448 61 
Q 2172 -91 1784 -91 
Q 1150 -91 751 415 
Q 353 922 353 1747 
Q 353 2572 751 3078 
Q 1150 3584 1784 3584 
Q 2172 3584 2448 3432 
Q 2725 3281 2906 2969 
L 2906 3500 
L 3481 3500 
L 3481 -1331 
L 2906 -1331 
L 2906 525 
z
" transform="scale(0.015625)"/>
        <path id="DejaVuSans-75" d="M 544 1381 
L 544 3500 
L 1119 3500 
L 1119 1403 
Q 1119 906 1312 657 
Q 1506 409 1894 409 
Q 2359 409 2629 706 
Q 2900 1003 2900 1516 
L 2900 3500 
L 3475 3500 
L 3475 0 
L 2900 0 
L 2900 538 
Q 2691 219 2414 64 
Q 2138 -91 1772 -91 
Q 1169 -91 856 284 
Q 544 659 544 1381 
z
M 1991 3584 
L 1991 3584 
z
" transform="scale(0.015625)"/>
        <path id="DejaVuSans-61" d="M 2194 1759 
Q 1497 1759 1228 1600 
Q 959 1441 959 1056 
Q 959 750 1161 570 
Q 1363 391 1709 391 
Q 2188 391 2477 730 
Q 2766 1069 2766 1631 
L 2766 1759 
L 2194 1759 
z
M 3341 1997 
L 3341 0 
L 2766 0 
L 2766 531 
Q 2569 213 2275 61 
Q 1981 -91 1556 -91 
Q 1019 -91 701 211 
Q 384 513 384 1019 
Q 384 1609 779 1909 
Q 1175 2209 1959 2209 
L 2766 2209 
L 2766 2266 
Q 2766 2663 2505 2880 
Q 2244 3097 1772 3097 
Q 1472 3097 1187 3025 
Q 903 2953 641 2809 
L 641 3341 
Q 956 3463 1253 3523 
Q 1550 3584 1831 3584 
Q 2591 3584 2966 3190 
Q 3341 2797 3341 1997 
z
" transform="scale(0.015625)"/>
        <path id="DejaVuSans-72" d="M 2631 2963 
Q 2534 3019 2420 3045 
Q 2306 3072 2169 3072 
Q 1681 3072 1420 2755 
Q 1159 2438 1159 1844 
L 1159 0 
L 581 0 
L 581 3500 
L 1159 3500 
L 1159 2956 
Q 1341 3275 1631 3429 
Q 1922 3584 2338 3584 
Q 2397 3584 2469 3576 
Q 2541 3569 2628 3553 
L 2631 2963 
z
" transform="scale(0.015625)"/>
        <path id="DejaVuSans-65" d="M 3597 1894 
L 3597 1613 
L 953 1613 
Q 991 1019 1311 708 
Q 1631 397 2203 397 
Q 2534 397 2845 478 
Q 3156 559 3463 722 
L 3463 178 
Q 3153 47 2828 -22 
Q 2503 -91 2169 -91 
Q 1331 -91 842 396 
Q 353 884 353 1716 
Q 353 2575 817 3079 
Q 1281 3584 2069 3584 
Q 2775 3584 3186 3129 
Q 3597 2675 3597 1894 
z
M 3022 2063 
Q 3016 2534 2758 2815 
Q 2500 3097 2075 3097 
Q 1594 3097 1305 2825 
Q 1016 2553 972 2059 
L 3022 2063 
z
" transform="scale(0.015625)"/>
        <path id="DejaVuSans-20" transform="scale(0.015625)"/>
        <path id="DejaVuSans-77" d="M 269 3500 
L 844 3500 
L 1563 769 
L 2278 3500 
L 2956 3500 
L 3675 769 
L 4391 3500 
L 4966 3500 
L 4050 0 
L 3372 0 
L 2619 2869 
L 1863 0 
L 1184 0 
L 269 3500 
z
" transform="scale(0.015625)"/>
        <path id="DejaVuSans-76" d="M 191 3500 
L 800 3500 
L 1894 563 
L 2988 3500 
L 3597 3500 
L 2284 0 
L 1503 0 
L 191 3500 
z
" transform="scale(0.015625)"/>
       </defs>
       <use xlink:href="#DejaVuSans-53"/>
       <use xlink:href="#DejaVuSans-71" x="63.476562"/>
       <use xlink:href="#DejaVuSans-75" x="126.953125"/>
       <use xlink:href="#DejaVuSans-61" x="190.332031"/>
       <use xlink:href="#DejaVuSans-72" x="251.611328"/>
       <use xlink:href="#DejaVuSans-65" x="290.474609"/>
       <use xlink:href="#DejaVuSans-20" x="351.998047"/>
       <use xlink:href="#DejaVuSans-77" x="383.785156"/>
       <use xlink:href="#DejaVuSans-61" x="465.572266"/>
       <use xlink:href="#DejaVuSans-76" x="526.851562"/>
       <use xlink:href="#DejaVuSans-65" x="586.03125"/>
      </g>
     </g>
    </g>
   </g>
   <g id="matplotlib.axis_2">
    <g id="ytick_1">
     <g id="line2d_5">
      <path d="M 40.603125 172.006125 
L 171.897243 172.006125 
" clip-path="url(#pc957a28cf8)" style="fill: none; stroke-dasharray: 1.85,0.8; stroke-dashoffset: 0; stroke: #b0b0b0; stroke-width: 0.5"/>
     </g>
     <g id="line2d_6">
      <defs>
       <path id="m3c58ce05f9" d="M 0 0 
L -3.5 0 
" style="stroke: #000000; stroke-width: 0.8"/>
      </defs>
      <g>
       <use xlink:href="#m3c58ce05f9" x="40.603125" y="172.006125" style="stroke: #000000; stroke-width: 0.8"/>
      </g>
     </g>
     <g id="text_3">
      <!-- 6 -->
      <g transform="translate(27.240625 175.805344) scale(0.1 -0.1)">
       <defs>
        <path id="DejaVuSans-36" d="M 2113 2584 
Q 1688 2584 1439 2293 
Q 1191 2003 1191 1497 
Q 1191 994 1439 701 
Q 1688 409 2113 409 
Q 2538 409 2786 701 
Q 3034 994 3034 1497 
Q 3034 2003 2786 2293 
Q 2538 2584 2113 2584 
z
M 3366 4563 
L 3366 3988 
Q 3128 4100 2886 4159 
Q 2644 4219 2406 4219 
Q 1781 4219 1451 3797 
Q 1122 3375 1075 2522 
Q 1259 2794 1537 2939 
Q 1816 3084 2150 3084 
Q 2853 3084 3261 2657 
Q 3669 2231 3669 1497 
Q 3669 778 3244 343 
Q 2819 -91 2113 -91 
Q 1303 -91 875 529 
Q 447 1150 447 2328 
Q 447 3434 972 4092 
Q 1497 4750 2381 4750 
Q 2619 4750 2861 4703 
Q 3103 4656 3366 4563 
z
" transform="scale(0.015625)"/>
       </defs>
       <use xlink:href="#DejaVuSans-36"/>
      </g>
     </g>
    </g>
    <g id="ytick_2">
     <g id="line2d_7">
      <path d="M 40.603125 138.742125 
L 171.897243 138.742125 
" clip-path="url(#pc957a28cf8)" style="fill: none; stroke-dasharray: 1.85,0.8; stroke-dashoffset: 0; stroke: #b0b0b0; stroke-width: 0.5"/>
     </g>
     <g id="line2d_8">
      <g>
       <use xlink:href="#m3c58ce05f9" x="40.603125" y="138.742125" style="stroke: #000000; stroke-width: 0.8"/>
      </g>
     </g>
     <g id="text_4">
      <!-- 8 -->
      <g transform="translate(27.240625 142.541344) scale(0.1 -0.1)">
       <defs>
        <path id="DejaVuSans-38" d="M 2034 2216 
Q 1584 2216 1326 1975 
Q 1069 1734 1069 1313 
Q 1069 891 1326 650 
Q 1584 409 2034 409 
Q 2484 409 2743 651 
Q 3003 894 3003 1313 
Q 3003 1734 2745 1975 
Q 2488 2216 2034 2216 
z
M 1403 2484 
Q 997 2584 770 2862 
Q 544 3141 544 3541 
Q 544 4100 942 4425 
Q 1341 4750 2034 4750 
Q 2731 4750 3128 4425 
Q 3525 4100 3525 3541 
Q 3525 3141 3298 2862 
Q 3072 2584 2669 2484 
Q 3125 2378 3379 2068 
Q 3634 1759 3634 1313 
Q 3634 634 3220 271 
Q 2806 -91 2034 -91 
Q 1263 -91 848 271 
Q 434 634 434 1313 
Q 434 1759 690 2068 
Q 947 2378 1403 2484 
z
M 1172 3481 
Q 1172 3119 1398 2916 
Q 1625 2713 2034 2713 
Q 2441 2713 2670 2916 
Q 2900 3119 2900 3481 
Q 2900 3844 2670 4047 
Q 2441 4250 2034 4250 
Q 1625 4250 1398 4047 
Q 1172 3844 1172 3481 
z
" transform="scale(0.015625)"/>
       </defs>
       <use xlink:href="#DejaVuSans-38"/>
      </g>
     </g>
    </g>
    <g id="ytick_3">
     <g id="line2d_9">
      <path d="M 40.603125 105.478125 
L 171.897243 105.478125 
" clip-path="url(#pc957a28cf8)" style="fill: none; stroke-dasharray: 1.85,0.8; stroke-dashoffset: 0; stroke: #b0b0b0; stroke-width: 0.5"/>
     </g>
     <g id="line2d_10">
      <g>
       <use xlink:href="#m3c58ce05f9" x="40.603125" y="105.478125" style="stroke: #000000; stroke-width: 0.8"/>
      </g>
     </g>
     <g id="text_5">
      <!-- 10 -->
      <g transform="translate(20.878125 109.277344) scale(0.1 -0.1)">
       <defs>
        <path id="DejaVuSans-31" d="M 794 531 
L 1825 531 
L 1825 4091 
L 703 3866 
L 703 4441 
L 1819 4666 
L 2450 4666 
L 2450 531 
L 3481 531 
L 3481 0 
L 794 0 
L 794 531 
z
" transform="scale(0.015625)"/>
        <path id="DejaVuSans-30" d="M 2034 4250 
Q 1547 4250 1301 3770 
Q 1056 3291 1056 2328 
Q 1056 1369 1301 889 
Q 1547 409 2034 409 
Q 2525 409 2770 889 
Q 3016 1369 3016 2328 
Q 3016 3291 2770 3770 
Q 2525 4250 2034 4250 
z
M 2034 4750 
Q 2819 4750 3233 4129 
Q 3647 3509 3647 2328 
Q 3647 1150 3233 529 
Q 2819 -91 2034 -91 
Q 1250 -91 836 529 
Q 422 1150 422 2328 
Q 422 3509 836 4129 
Q 1250 4750 2034 4750 
z
" transform="scale(0.015625)"/>
       </defs>
       <use xlink:href="#DejaVuSans-31"/>
       <use xlink:href="#DejaVuSans-30" x="63.623047"/>
      </g>
     </g>
    </g>
    <g id="ytick_4">
     <g id="line2d_11">
      <path d="M 40.603125 72.214125 
L 171.897243 72.214125 
" clip-path="url(#pc957a28cf8)" style="fill: none; stroke-dasharray: 1.85,0.8; stroke-dashoffset: 0; stroke: #b0b0b0; stroke-width: 0.5"/>
     </g>
     <g id="line2d_12">
      <g>
       <use xlink:href="#m3c58ce05f9" x="40.603125" y="72.214125" style="stroke: #000000; stroke-width: 0.8"/>
      </g>
     </g>
     <g id="text_6">
      <!-- 12 -->
      <g transform="translate(20.878125 76.013344) scale(0.1 -0.1)">
       <defs>
        <path id="DejaVuSans-32" d="M 1228 531 
L 3431 531 
L 3431 0 
L 469 0 
L 469 531 
Q 828 903 1448 1529 
Q 2069 2156 2228 2338 
Q 2531 2678 2651 2914 
Q 2772 3150 2772 3378 
Q 2772 3750 2511 3984 
Q 2250 4219 1831 4219 
Q 1534 4219 1204 4116 
Q 875 4013 500 3803 
L 500 4441 
Q 881 4594 1212 4672 
Q 1544 4750 1819 4750 
Q 2544 4750 2975 4387 
Q 3406 4025 3406 3419 
Q 3406 3131 3298 2873 
Q 3191 2616 2906 2266 
Q 2828 2175 2409 1742 
Q 1991 1309 1228 531 
z
" transform="scale(0.015625)"/>
       </defs>
       <use xlink:href="#DejaVuSans-31"/>
       <use xlink:href="#DejaVuSans-32" x="63.623047"/>
      </g>
     </g>
    </g>
    <g id="ytick_5">
     <g id="line2d_13">
      <path d="M 40.603125 38.950125 
L 171.897243 38.950125 
" clip-path="url(#pc957a28cf8)" style="fill: none; stroke-dasharray: 1.85,0.8; stroke-dashoffset: 0; stroke: #b0b0b0; stroke-width: 0.5"/>
     </g>
     <g id="line2d_14">
      <g>
       <use xlink:href="#m3c58ce05f9" x="40.603125" y="38.950125" style="stroke: #000000; stroke-width: 0.8"/>
      </g>
     </g>
     <g id="text_7">
      <!-- 14 -->
      <g transform="translate(20.878125 42.749344) scale(0.1 -0.1)">
       <defs>
        <path id="DejaVuSans-34" d="M 2419 4116 
L 825 1625 
L 2419 1625 
L 2419 4116 
z
M 2253 4666 
L 3047 4666 
L 3047 1625 
L 3713 1625 
L 3713 1100 
L 3047 1100 
L 3047 0 
L 2419 0 
L 2419 1100 
L 313 1100 
L 313 1709 
L 2253 4666 
z
" transform="scale(0.015625)"/>
       </defs>
       <use xlink:href="#DejaVuSans-31"/>
       <use xlink:href="#DejaVuSans-34" x="63.623047"/>
      </g>
     </g>
    </g>
    <g id="text_8">
     <!-- Averaging window (ms) -->
     <g transform="translate(14.798438 164.190625) rotate(-90) scale(0.1 -0.1)">
      <defs>
       <path id="DejaVuSans-41" d="M 2188 4044 
L 1331 1722 
L 3047 1722 
L 2188 4044 
z
M 1831 4666 
L 2547 4666 
L 4325 0 
L 3669 0 
L 3244 1197 
L 1141 1197 
L 716 0 
L 50 0 
L 1831 4666 
z
" transform="scale(0.015625)"/>
       <path id="DejaVuSans-67" d="M 2906 1791 
Q 2906 2416 2648 2759 
Q 2391 3103 1925 3103 
Q 1463 3103 1205 2759 
Q 947 2416 947 1791 
Q 947 1169 1205 825 
Q 1463 481 1925 481 
Q 2391 481 2648 825 
Q 2906 1169 2906 1791 
z
M 3481 434 
Q 3481 -459 3084 -895 
Q 2688 -1331 1869 -1331 
Q 1566 -1331 1297 -1286 
Q 1028 -1241 775 -1147 
L 775 -588 
Q 1028 -725 1275 -790 
Q 1522 -856 1778 -856 
Q 2344 -856 2625 -561 
Q 2906 -266 2906 331 
L 2906 616 
Q 2728 306 2450 153 
Q 2172 0 1784 0 
Q 1141 0 747 490 
Q 353 981 353 1791 
Q 353 2603 747 3093 
Q 1141 3584 1784 3584 
Q 2172 3584 2450 3431 
Q 2728 3278 2906 2969 
L 2906 3500 
L 3481 3500 
L 3481 434 
z
" transform="scale(0.015625)"/>
       <path id="DejaVuSans-69" d="M 603 3500 
L 1178 3500 
L 1178 0 
L 603 0 
L 603 3500 
z
M 603 4863 
L 1178 4863 
L 1178 4134 
L 603 4134 
L 603 4863 
z
" transform="scale(0.015625)"/>
       <path id="DejaVuSans-6e" d="M 3513 2113 
L 3513 0 
L 2938 0 
L 2938 2094 
Q 2938 2591 2744 2837 
Q 2550 3084 2163 3084 
Q 1697 3084 1428 2787 
Q 1159 2491 1159 1978 
L 1159 0 
L 581 0 
L 581 3500 
L 1159 3500 
L 1159 2956 
Q 1366 3272 1645 3428 
Q 1925 3584 2291 3584 
Q 2894 3584 3203 3211 
Q 3513 2838 3513 2113 
z
" transform="scale(0.015625)"/>
       <path id="DejaVuSans-64" d="M 2906 2969 
L 2906 4863 
L 3481 4863 
L 3481 0 
L 2906 0 
L 2906 525 
Q 2725 213 2448 61 
Q 2172 -91 1784 -91 
Q 1150 -91 751 415 
Q 353 922 353 1747 
Q 353 2572 751 3078 
Q 1150 3584 1784 3584 
Q 2172 3584 2448 3432 
Q 2725 3281 2906 2969 
z
M 947 1747 
Q 947 1113 1208 752 
Q 1469 391 1925 391 
Q 2381 391 2643 752 
Q 2906 1113 2906 1747 
Q 2906 2381 2643 2742 
Q 2381 3103 1925 3103 
Q 1469 3103 1208 2742 
Q 947 2381 947 1747 
z
" transform="scale(0.015625)"/>
       <path id="DejaVuSans-6f" d="M 1959 3097 
Q 1497 3097 1228 2736 
Q 959 2375 959 1747 
Q 959 1119 1226 758 
Q 1494 397 1959 397 
Q 2419 397 2687 759 
Q 2956 1122 2956 1747 
Q 2956 2369 2687 2733 
Q 2419 3097 1959 3097 
z
M 1959 3584 
Q 2709 3584 3137 3096 
Q 3566 2609 3566 1747 
Q 3566 888 3137 398 
Q 2709 -91 1959 -91 
Q 1206 -91 779 398 
Q 353 888 353 1747 
Q 353 2609 779 3096 
Q 1206 3584 1959 3584 
z
" transform="scale(0.015625)"/>
       <path id="DejaVuSans-28" d="M 1984 4856 
Q 1566 4138 1362 3434 
Q 1159 2731 1159 2009 
Q 1159 1288 1364 580 
Q 1569 -128 1984 -844 
L 1484 -844 
Q 1016 -109 783 600 
Q 550 1309 550 2009 
Q 550 2706 781 3412 
Q 1013 4119 1484 4856 
L 1984 4856 
z
" transform="scale(0.015625)"/>
       <path id="DejaVuSans-6d" d="M 3328 2828 
Q 3544 3216 3844 3400 
Q 4144 3584 4550 3584 
Q 5097 3584 5394 3201 
Q 5691 2819 5691 2113 
L 5691 0 
L 5113 0 
L 5113 2094 
Q 5113 2597 4934 2840 
Q 4756 3084 4391 3084 
Q 3944 3084 3684 2787 
Q 3425 2491 3425 1978 
L 3425 0 
L 2847 0 
L 2847 2094 
Q 2847 2600 2669 2842 
Q 2491 3084 2119 3084 
Q 1678 3084 1418 2786 
Q 1159 2488 1159 1978 
L 1159 0 
L 581 0 
L 581 3500 
L 1159 3500 
L 1159 2956 
Q 1356 3278 1631 3431 
Q 1906 3584 2284 3584 
Q 2666 3584 2933 3390 
Q 3200 3197 3328 2828 
z
" transform="scale(0.015625)"/>
       <path id="DejaVuSans-73" d="M 2834 3397 
L 2834 2853 
Q 2591 2978 2328 3040 
Q 2066 3103 1784 3103 
Q 1356 3103 1142 2972 
Q 928 2841 928 2578 
Q 928 2378 1081 2264 
Q 1234 2150 1697 2047 
L 1894 2003 
Q 2506 1872 2764 1633 
Q 3022 1394 3022 966 
Q 3022 478 2636 193 
Q 2250 -91 1575 -91 
Q 1294 -91 989 -36 
Q 684 19 347 128 
L 347 722 
Q 666 556 975 473 
Q 1284 391 1588 391 
Q 1994 391 2212 530 
Q 2431 669 2431 922 
Q 2431 1156 2273 1281 
Q 2116 1406 1581 1522 
L 1381 1569 
Q 847 1681 609 1914 
Q 372 2147 372 2553 
Q 372 3047 722 3315 
Q 1072 3584 1716 3584 
Q 2034 3584 2315 3537 
Q 2597 3491 2834 3397 
z
" transform="scale(0.015625)"/>
       <path id="DejaVuSans-29" d="M 513 4856 
L 1013 4856 
Q 1481 4119 1714 3412 
Q 1947 2706 1947 2009 
Q 1947 1309 1714 600 
Q 1481 -109 1013 -844 
L 513 -844 
Q 928 -128 1133 580 
Q 1338 1288 1338 2009 
Q 1338 2731 1133 3434 
Q 928 4138 513 4856 
z
" transform="scale(0.015625)"/>
      </defs>
      <use xlink:href="#DejaVuSans-41"/>
      <use xlink:href="#DejaVuSans-76" x="62.533203"/>
      <use xlink:href="#DejaVuSans-65" x="121.712891"/>
      <use xlink:href="#DejaVuSans-72" x="183.236328"/>
      <use xlink:href="#DejaVuSans-61" x="224.349609"/>
      <use xlink:href="#DejaVuSans-67" x="285.628906"/>
      <use xlink:href="#DejaVuSans-69" x="349.105469"/>
      <use xlink:href="#DejaVuSans-6e" x="376.888672"/>
      <use xlink:href="#DejaVuSans-67" x="440.267578"/>
      <use xlink:href="#DejaVuSans-20" x="503.744141"/>
      <use xlink:href="#DejaVuSans-77" x="535.53125"/>
      <use xlink:href="#DejaVuSans-69" x="617.318359"/>
      <use xlink:href="#DejaVuSans-6e" x="645.101562"/>
      <use xlink:href="#DejaVuSans-64" x="708.480469"/>
      <use xlink:href="#DejaVuSans-6f" x="771.957031"/>
      <use xlink:href="#DejaVuSans-77" x="833.138672"/>
      <use xlink:href="#DejaVuSans-20" x="914.925781"/>
      <use xlink:href="#DejaVuSans-28" x="946.712891"/>
      <use xlink:href="#DejaVuSans-6d" x="985.726562"/>
      <use xlink:href="#DejaVuSans-73" x="1083.138672"/>
      <use xlink:href="#DejaVuSans-29" x="1135.238281"/>
     </g>
    </g>
   </g>
   <g id="LineCollection_1">
    <path d="M 79.99136 137.752817 
L 79.99136 86.359678 
" clip-path="url(#pc957a28cf8)" style="fill: none; stroke: #000000; stroke-width: 5"/>
    <path d="M 132.509007 132.986143 
L 132.509007 63.69222 
" clip-path="url(#pc957a28cf8)" style="fill: none; stroke: #000000; stroke-width: 5"/>
   </g>
   <g id="LineCollection_2">
    <path d="M 79.99136 167.278668 
L 79.99136 55.582125 
" clip-path="url(#pc957a28cf8)" style="fill: none; stroke: #000000"/>
    <path d="M 132.509007 166.761178 
L 132.509007 47.534877 
" clip-path="url(#pc957a28cf8)" style="fill: none; stroke: #000000"/>
   </g>
   <g id="patch_3">
    <path d="M 40.603125 188.638125 
L 40.603125 22.318125 
" style="fill: none; stroke: #000000; stroke-width: 0.8; stroke-linejoin: miter; stroke-linecap: square"/>
   </g>
   <g id="patch_4">
    <path d="M 171.897243 188.638125 
L 171.897243 22.318125 
" style="fill: none; stroke: #000000; stroke-width: 0.8; stroke-linejoin: miter; stroke-linecap: square"/>
   </g>
   <g id="patch_5">
    <path d="M 40.603125 188.638125 
L 171.897243 188.638125 
" style="fill: none; stroke: #000000; stroke-width: 0.8; stroke-linejoin: miter; stroke-linecap: square"/>
   </g>
   <g id="patch_6">
    <path d="M 40.603125 22.318125 
L 171.897243 22.318125 
" style="fill: none; stroke: #000000; stroke-width: 0.8; stroke-linejoin: miter; stroke-linecap: square"/>
   </g>
   <g id="PathCollection_1">
    <defs>
     <path id="mf947bc3a5c" d="M 0 1.732051 
C 0.459345 1.732051 0.899939 1.549551 1.224745 1.224745 
C 1.549551 0.899939 1.732051 0.459345 1.732051 0 
C 1.732051 -0.459345 1.549551 -0.899939 1.224745 -1.224745 
C 0.899939 -1.549551 0.459345 -1.732051 0 -1.732051 
C -0.459345 -1.732051 -0.899939 -1.549551 -1.224745 -1.224745 
C -1.549551 -0.899939 -1.732051 -0.459345 -1.732051 0 
C -1.732051 0.459345 -1.549551 0.899939 -1.224745 1.224745 
C -0.899939 1.549551 -0.459345 1.732051 0 1.732051 
z
" style="stroke: #ffffff"/>
    </defs>
    <g clip-path="url(#pc957a28cf8)">
     <use xlink:href="#mf947bc3a5c" x="79.99136" y="107.96426" style="fill: #ffffff; stroke: #ffffff"/>
     <use xlink:href="#mf947bc3a5c" x="132.509007" y="98.276565" style="fill: #ffffff; stroke: #ffffff"/>
    </g>
   </g>
   <g id="text_9">
    <!-- GTX 1080 Ti -->
    <g transform="translate(69.816121 16.318125) scale(0.12 -0.12)">
     <defs>
      <path id="DejaVuSans-47" d="M 3809 666 
L 3809 1919 
L 2778 1919 
L 2778 2438 
L 4434 2438 
L 4434 434 
Q 4069 175 3628 42 
Q 3188 -91 2688 -91 
Q 1594 -91 976 548 
Q 359 1188 359 2328 
Q 359 3472 976 4111 
Q 1594 4750 2688 4750 
Q 3144 4750 3555 4637 
Q 3966 4525 4313 4306 
L 4313 3634 
Q 3963 3931 3569 4081 
Q 3175 4231 2741 4231 
Q 1884 4231 1454 3753 
Q 1025 3275 1025 2328 
Q 1025 1384 1454 906 
Q 1884 428 2741 428 
Q 3075 428 3337 486 
Q 3600 544 3809 666 
z
" transform="scale(0.015625)"/>
      <path id="DejaVuSans-54" d="M -19 4666 
L 3928 4666 
L 3928 4134 
L 2272 4134 
L 2272 0 
L 1638 0 
L 1638 4134 
L -19 4134 
L -19 4666 
z
" transform="scale(0.015625)"/>
      <path id="DejaVuSans-58" d="M 403 4666 
L 1081 4666 
L 2241 2931 
L 3406 4666 
L 4084 4666 
L 2584 2425 
L 4184 0 
L 3506 0 
L 2194 1984 
L 872 0 
L 191 0 
L 1856 2491 
L 403 4666 
z
" transform="scale(0.015625)"/>
     </defs>
     <use xlink:href="#DejaVuSans-47"/>
     <use xlink:href="#DejaVuSans-54" x="73.865234"/>
     <use xlink:href="#DejaVuSans-58" x="134.949219"/>
     <use xlink:href="#DejaVuSans-20" x="203.455078"/>
     <use xlink:href="#DejaVuSans-31" x="235.242188"/>
     <use xlink:href="#DejaVuSans-30" x="298.865234"/>
     <use xlink:href="#DejaVuSans-38" x="362.488281"/>
     <use xlink:href="#DejaVuSans-30" x="426.111328"/>
     <use xlink:href="#DejaVuSans-20" x="489.734375"/>
     <use xlink:href="#DejaVuSans-54" x="521.521484"/>
     <use xlink:href="#DejaVuSans-69" x="579.480469"/>
    </g>
   </g>
  </g>
  <g id="axes_2">
   <g id="patch_7">
    <path d="M 198.156066 188.638125 
L 329.450184 188.638125 
L 329.450184 22.318125 
L 198.156066 22.318125 
z
" style="fill: #ffffff"/>
   </g>
   <g id="PolyCollection_3">
    <defs>
     <path id="m7fe34eeb5e" d="M 237.719573 -26.655633 
L 237.36903 -26.655633 
L 237.370243 -28.19982 
L 237.375566 -29.744007 
L 237.383957 -31.288193 
L 237.393921 -32.83238 
L 237.403636 -34.376567 
L 237.411111 -35.920753 
L 237.414352 -37.46494 
L 237.411531 -39.009126 
L 237.401127 -40.553313 
L 237.382055 -42.0975 
L 237.353761 -43.641686 
L 237.316287 -45.185873 
L 237.270301 -46.73006 
L 237.217077 -48.274246 
L 237.158409 -49.818433 
L 237.096462 -51.36262 
L 237.033548 -52.906806 
L 236.971842 -54.450993 
L 236.913066 -55.99518 
L 236.858172 -57.539366 
L 236.807088 -59.083553 
L 236.758564 -60.627739 
L 236.710163 -62.171926 
L 236.658434 -63.716113 
L 236.599255 -65.260299 
L 236.528318 -66.804486 
L 236.441707 -68.348673 
L 236.336477 -69.892859 
L 236.211158 -71.437046 
L 236.066098 -72.981233 
L 235.903587 -74.525419 
L 235.727734 -76.069606 
L 235.544108 -77.613793 
L 235.35918 -79.157979 
L 235.17964 -80.702166 
L 235.01166 -82.246352 
L 234.860185 -83.790539 
L 234.728332 -85.334726 
L 234.616927 -86.878912 
L 234.524241 -88.423099 
L 234.445931 -89.967286 
L 234.375189 -91.511472 
L 234.303109 -93.055659 
L 234.219242 -94.599846 
L 234.112317 -96.144032 
L 233.971079 -97.688219 
L 233.785184 -99.232406 
L 233.546065 -100.776592 
L 233.247701 -102.320779 
L 232.887182 -103.864965 
L 232.465016 -105.409152 
L 231.985132 -106.953339 
L 231.454562 -108.497525 
L 230.882852 -110.041712 
L 230.281268 -111.585899 
L 229.661918 -113.130085 
L 229.036912 -114.674272 
L 228.417672 -116.218459 
L 227.814513 -117.762645 
L 227.236507 -119.306832 
L 226.691648 -120.851019 
L 226.187218 -122.395205 
L 225.730259 -123.939392 
L 225.328 -125.483579 
L 224.988131 -127.027765 
L 224.718807 -128.571952 
L 224.528367 -130.116138 
L 224.424779 -131.660325 
L 224.41489 -133.204512 
L 224.503585 -134.748698 
L 224.692997 -136.292885 
L 224.981884 -137.837072 
L 225.365282 -139.381258 
L 225.8345 -140.925445 
L 226.377464 -142.469632 
L 226.979392 -144.013818 
L 227.623693 -145.558005 
L 228.292994 -147.102192 
L 228.970158 -148.646378 
L 229.639181 -150.190565 
L 230.285897 -151.734751 
L 230.898464 -153.278938 
L 231.467653 -154.823125 
L 231.986995 -156.367311 
L 232.452831 -157.911498 
L 232.864314 -159.455685 
L 233.223344 -160.999871 
L 233.534408 -162.544058 
L 233.804265 -164.088245 
L 234.041432 -165.632431 
L 234.255459 -167.176618 
L 234.456044 -168.720805 
L 234.652082 -170.264991 
L 234.850776 -171.809178 
L 235.056966 -173.353364 
L 235.272755 -174.897551 
L 235.497519 -176.441738 
L 235.72826 -177.985924 
L 235.960236 -179.530111 
L 239.128367 -179.530111 
L 239.128367 -179.530111 
L 239.360343 -177.985924 
L 239.591084 -176.441738 
L 239.815848 -174.897551 
L 240.031637 -173.353364 
L 240.237827 -171.809178 
L 240.436521 -170.264991 
L 240.632559 -168.720805 
L 240.833144 -167.176618 
L 241.047171 -165.632431 
L 241.284338 -164.088245 
L 241.554195 -162.544058 
L 241.865259 -160.999871 
L 242.224289 -159.455685 
L 242.635772 -157.911498 
L 243.101608 -156.367311 
L 243.62095 -154.823125 
L 244.190139 -153.278938 
L 244.802706 -151.734751 
L 245.449422 -150.190565 
L 246.118445 -148.646378 
L 246.795609 -147.102192 
L 247.46491 -145.558005 
L 248.109211 -144.013818 
L 248.711139 -142.469632 
L 249.254103 -140.925445 
L 249.723321 -139.381258 
L 250.106719 -137.837072 
L 250.395606 -136.292885 
L 250.585018 -134.748698 
L 250.673713 -133.204512 
L 250.663824 -131.660325 
L 250.560236 -130.116138 
L 250.369796 -128.571952 
L 250.100472 -127.027765 
L 249.760603 -125.483579 
L 249.358344 -123.939392 
L 248.901384 -122.395205 
L 248.396955 -120.851019 
L 247.852096 -119.306832 
L 247.27409 -117.762645 
L 246.670931 -116.218459 
L 246.051691 -114.674272 
L 245.426685 -113.130085 
L 244.807335 -111.585899 
L 244.205751 -110.041712 
L 243.634041 -108.497525 
L 243.103471 -106.953339 
L 242.623587 -105.409152 
L 242.201421 -103.864965 
L 241.840902 -102.320779 
L 241.542538 -100.776592 
L 241.303419 -99.232406 
L 241.117524 -97.688219 
L 240.976286 -96.144032 
L 240.869361 -94.599846 
L 240.785494 -93.055659 
L 240.713414 -91.511472 
L 240.642672 -89.967286 
L 240.564362 -88.423099 
L 240.471676 -86.878912 
L 240.360271 -85.334726 
L 240.228418 -83.790539 
L 240.076943 -82.246352 
L 239.908962 -80.702166 
L 239.729423 -79.157979 
L 239.544495 -77.613793 
L 239.360869 -76.069606 
L 239.185016 -74.525419 
L 239.022505 -72.981233 
L 238.877445 -71.437046 
L 238.752126 -69.892859 
L 238.646896 -68.348673 
L 238.560285 -66.804486 
L 238.489348 -65.260299 
L 238.430169 -63.716113 
L 238.37844 -62.171926 
L 238.330039 -60.627739 
L 238.281515 -59.083553 
L 238.230431 -57.539366 
L 238.175537 -55.99518 
L 238.116761 -54.450993 
L 238.055055 -52.906806 
L 237.992141 -51.36262 
L 237.930194 -49.818433 
L 237.871526 -48.274246 
L 237.818302 -46.73006 
L 237.772316 -45.185873 
L 237.734842 -43.641686 
L 237.706548 -42.0975 
L 237.687476 -40.553313 
L 237.677072 -39.009126 
L 237.674251 -37.46494 
L 237.677492 -35.920753 
L 237.684967 -34.376567 
L 237.694682 -32.83238 
L 237.704646 -31.288193 
L 237.713037 -29.744007 
L 237.71836 -28.19982 
L 237.719573 -26.655633 
z
" style="stroke: #76b900"/>
    </defs>
    <g clip-path="url(#p8ef22816c1)">
     <use xlink:href="#m7fe34eeb5e" x="0" y="212.51625" style="fill: #76b900; stroke: #76b900"/>
    </g>
   </g>
   <g id="PolyCollection_4">
    <defs>
     <path id="mc766c30792" d="M 290.391893 -28.792667 
L 289.732004 -28.792667 
L 289.713704 -30.387448 
L 289.702423 -31.982228 
L 289.698162 -33.577009 
L 289.700372 -35.171789 
L 289.708105 -36.76657 
L 289.720215 -38.36135 
L 289.735551 -39.956131 
L 289.753089 -41.550912 
L 289.771972 -43.145692 
L 289.791458 -44.740473 
L 289.810782 -46.335253 
L 289.828985 -47.930034 
L 289.844749 -49.524814 
L 289.856294 -51.119595 
L 289.861364 -52.714375 
L 289.857313 -54.309156 
L 289.841303 -55.903936 
L 289.810575 -57.498717 
L 289.762775 -59.093498 
L 289.696281 -60.688278 
L 289.610484 -62.283059 
L 289.505969 -63.877839 
L 289.384565 -65.47262 
L 289.249219 -67.0674 
L 289.103705 -68.662181 
L 288.952186 -70.256961 
L 288.798689 -71.851742 
L 288.646542 -73.446522 
L 288.497879 -75.041303 
L 288.353259 -76.636084 
L 288.21147 -78.230864 
L 288.069553 -79.825645 
L 287.923072 -81.420425 
L 287.766612 -83.015206 
L 287.594492 -84.609986 
L 287.401605 -86.204767 
L 287.184303 -87.799547 
L 286.941175 -89.394328 
L 286.673567 -90.989108 
L 286.385709 -92.583889 
L 286.084348 -94.17867 
L 285.777867 -95.77345 
L 285.47499 -97.368231 
L 285.183231 -98.963011 
L 284.907356 -100.557792 
L 284.648109 -102.152572 
L 284.401466 -103.747353 
L 284.158583 -105.342133 
L 283.906516 -106.936914 
L 283.629673 -108.531695 
L 283.311863 -110.126475 
L 282.938681 -111.721256 
L 282.499935 -113.316036 
L 281.99177 -114.910817 
L 281.418141 -116.505597 
L 280.791371 -118.100378 
L 280.131647 -119.695158 
L 279.465438 -121.289939 
L 278.823048 -122.884719 
L 278.235632 -124.4795 
L 277.732153 -126.074281 
L 277.336746 -127.669061 
L 277.066879 -129.263842 
L 276.932537 -130.858622 
L 276.936427 -132.453403 
L 277.074994 -134.048183 
L 277.339885 -135.642964 
L 277.719467 -137.237744 
L 278.200053 -138.832525 
L 278.766656 -140.427305 
L 279.403269 -142.022086 
L 280.092835 -143.616867 
L 280.817173 -145.211647 
L 281.55709 -146.806428 
L 282.292866 -148.401208 
L 283.005126 -149.995989 
L 283.675992 -151.590769 
L 284.290349 -153.18555 
L 284.836982 -154.78033 
L 285.309424 -156.375111 
L 285.706383 -157.969891 
L 286.031697 -159.564672 
L 286.293831 -161.159453 
L 286.504952 -162.754233 
L 286.679657 -164.349014 
L 286.833458 -165.943794 
L 286.981179 -167.538575 
L 287.135428 -169.133355 
L 287.305353 -170.728136 
L 287.495878 -172.322916 
L 287.707508 -173.917697 
L 287.936761 -175.512477 
L 288.177117 -177.107258 
L 288.420309 -178.702039 
L 288.657701 -180.296819 
L 288.881523 -181.8916 
L 289.08576 -183.48638 
L 289.266612 -185.081161 
L 289.422523 -186.675941 
L 290.701374 -186.675941 
L 290.701374 -186.675941 
L 290.857285 -185.081161 
L 291.038137 -183.48638 
L 291.242374 -181.8916 
L 291.466196 -180.296819 
L 291.703588 -178.702039 
L 291.94678 -177.107258 
L 292.187136 -175.512477 
L 292.416389 -173.917697 
L 292.628019 -172.322916 
L 292.818544 -170.728136 
L 292.98847 -169.133355 
L 293.142718 -167.538575 
L 293.290439 -165.943794 
L 293.44424 -164.349014 
L 293.618945 -162.754233 
L 293.830066 -161.159453 
L 294.0922 -159.564672 
L 294.417514 -157.969891 
L 294.814473 -156.375111 
L 295.286915 -154.78033 
L 295.833548 -153.18555 
L 296.447905 -151.590769 
L 297.118771 -149.995989 
L 297.831031 -148.401208 
L 298.566807 -146.806428 
L 299.306724 -145.211647 
L 300.031062 -143.616867 
L 300.720628 -142.022086 
L 301.357241 -140.427305 
L 301.923844 -138.832525 
L 302.40443 -137.237744 
L 302.784012 -135.642964 
L 303.048903 -134.048183 
L 303.18747 -132.453403 
L 303.19136 -130.858622 
L 303.057018 -129.263842 
L 302.787151 -127.669061 
L 302.391744 -126.074281 
L 301.888266 -124.4795 
L 301.300849 -122.884719 
L 300.658459 -121.289939 
L 299.99225 -119.695158 
L 299.332526 -118.100378 
L 298.705756 -116.505597 
L 298.132127 -114.910817 
L 297.623962 -113.316036 
L 297.185216 -111.721256 
L 296.812034 -110.126475 
L 296.494224 -108.531695 
L 296.217381 -106.936914 
L 295.965314 -105.342133 
L 295.722431 -103.747353 
L 295.475788 -102.152572 
L 295.216541 -100.557792 
L 294.940666 -98.963011 
L 294.648907 -97.368231 
L 294.34603 -95.77345 
L 294.039549 -94.17867 
L 293.738188 -92.583889 
L 293.45033 -90.989108 
L 293.182722 -89.394328 
L 292.939594 -87.799547 
L 292.722292 -86.204767 
L 292.529405 -84.609986 
L 292.357285 -83.015206 
L 292.200825 -81.420425 
L 292.054344 -79.825645 
L 291.912427 -78.230864 
L 291.770638 -76.636084 
L 291.626018 -75.041303 
L 291.477355 -73.446522 
L 291.325208 -71.851742 
L 291.171711 -70.256961 
L 291.020192 -68.662181 
L 290.874678 -67.0674 
L 290.739332 -65.47262 
L 290.617928 -63.877839 
L 290.513413 -62.283059 
L 290.427616 -60.688278 
L 290.361122 -59.093498 
L 290.313323 -57.498717 
L 290.282594 -55.903936 
L 290.266584 -54.309156 
L 290.262533 -52.714375 
L 290.267603 -51.119595 
L 290.279148 -49.524814 
L 290.294912 -47.930034 
L 290.313115 -46.335253 
L 290.332439 -44.740473 
L 290.351925 -43.145692 
L 290.370808 -41.550912 
L 290.388346 -39.956131 
L 290.403682 -38.36135 
L 290.415792 -36.76657 
L 290.423525 -35.171789 
L 290.425735 -33.577009 
L 290.421474 -31.982228 
L 290.410193 -30.387448 
L 290.391893 -28.792667 
z
" style="stroke: #ed1c24"/>
    </defs>
    <g clip-path="url(#p8ef22816c1)">
     <use xlink:href="#mc766c30792" x="0" y="212.51625" style="fill: #ed1c24; stroke: #ed1c24"/>
    </g>
   </g>
   <g id="matplotlib.axis_3">
    <g id="xtick_3">
     <g id="line2d_15">
      <path d="M 237.544301 188.638125 
L 237.544301 22.318125 
" clip-path="url(#p8ef22816c1)" style="fill: none; stroke-dasharray: 1.85,0.8; stroke-dashoffset: 0; stroke: #b0b0b0; stroke-width: 0.5"/>
     </g>
     <g id="line2d_16">
      <g>
       <use xlink:href="#m05ecd91eff" x="237.544301" y="188.638125" style="stroke: #000000; stroke-width: 0.8"/>
      </g>
     </g>
     <g id="text_10">
      <!-- PMD -->
      <g transform="translate(226.365395 203.236563) scale(0.1 -0.1)">
       <use xlink:href="#DejaVuSans-50"/>
       <use xlink:href="#DejaVuSans-4d" x="60.302734"/>
       <use xlink:href="#DejaVuSans-44" x="146.582031"/>
      </g>
     </g>
    </g>
    <g id="xtick_4">
     <g id="line2d_17">
      <path d="M 290.061949 188.638125 
L 290.061949 22.318125 
" clip-path="url(#p8ef22816c1)" style="fill: none; stroke-dasharray: 1.85,0.8; stroke-dashoffset: 0; stroke: #b0b0b0; stroke-width: 0.5"/>
     </g>
     <g id="line2d_18">
      <g>
       <use xlink:href="#m05ecd91eff" x="290.061949" y="188.638125" style="stroke: #000000; stroke-width: 0.8"/>
      </g>
     </g>
     <g id="text_11">
      <!-- Square wave -->
      <g transform="translate(257.683042 203.236563) scale(0.1 -0.1)">
       <use xlink:href="#DejaVuSans-53"/>
       <use xlink:href="#DejaVuSans-71" x="63.476562"/>
       <use xlink:href="#DejaVuSans-75" x="126.953125"/>
       <use xlink:href="#DejaVuSans-61" x="190.332031"/>
       <use xlink:href="#DejaVuSans-72" x="251.611328"/>
       <use xlink:href="#DejaVuSans-65" x="290.474609"/>
       <use xlink:href="#DejaVuSans-20" x="351.998047"/>
       <use xlink:href="#DejaVuSans-77" x="383.785156"/>
       <use xlink:href="#DejaVuSans-61" x="465.572266"/>
       <use xlink:href="#DejaVuSans-76" x="526.851562"/>
       <use xlink:href="#DejaVuSans-65" x="586.03125"/>
      </g>
     </g>
    </g>
   </g>
   <g id="matplotlib.axis_4">
    <g id="ytick_6">
     <g id="line2d_19">
      <path d="M 198.156066 188.638125 
L 329.450184 188.638125 
" clip-path="url(#p8ef22816c1)" style="fill: none; stroke-dasharray: 1.85,0.8; stroke-dashoffset: 0; stroke: #b0b0b0; stroke-width: 0.5"/>
     </g>
     <g id="line2d_20">
      <g>
       <use xlink:href="#m3c58ce05f9" x="198.156066" y="188.638125" style="stroke: #000000; stroke-width: 0.8"/>
      </g>
     </g>
     <g id="text_12">
      <!-- 0 -->
      <g transform="translate(184.793566 192.437344) scale(0.1 -0.1)">
       <use xlink:href="#DejaVuSans-30"/>
      </g>
     </g>
    </g>
    <g id="ytick_7">
     <g id="line2d_21">
      <path d="M 198.156066 167.848125 
L 329.450184 167.848125 
" clip-path="url(#p8ef22816c1)" style="fill: none; stroke-dasharray: 1.85,0.8; stroke-dashoffset: 0; stroke: #b0b0b0; stroke-width: 0.5"/>
     </g>
     <g id="line2d_22">
      <g>
       <use xlink:href="#m3c58ce05f9" x="198.156066" y="167.848125" style="stroke: #000000; stroke-width: 0.8"/>
      </g>
     </g>
     <g id="text_13">
      <!-- 5 -->
      <g transform="translate(184.793566 171.647344) scale(0.1 -0.1)">
       <defs>
        <path id="DejaVuSans-35" d="M 691 4666 
L 3169 4666 
L 3169 4134 
L 1269 4134 
L 1269 2991 
Q 1406 3038 1543 3061 
Q 1681 3084 1819 3084 
Q 2600 3084 3056 2656 
Q 3513 2228 3513 1497 
Q 3513 744 3044 326 
Q 2575 -91 1722 -91 
Q 1428 -91 1123 -41 
Q 819 9 494 109 
L 494 744 
Q 775 591 1075 516 
Q 1375 441 1709 441 
Q 2250 441 2565 725 
Q 2881 1009 2881 1497 
Q 2881 1984 2565 2268 
Q 2250 2553 1709 2553 
Q 1456 2553 1204 2497 
Q 953 2441 691 2322 
L 691 4666 
z
" transform="scale(0.015625)"/>
       </defs>
       <use xlink:href="#DejaVuSans-35"/>
      </g>
     </g>
    </g>
    <g id="ytick_8">
     <g id="line2d_23">
      <path d="M 198.156066 147.058125 
L 329.450184 147.058125 
" clip-path="url(#p8ef22816c1)" style="fill: none; stroke-dasharray: 1.85,0.8; stroke-dashoffset: 0; stroke: #b0b0b0; stroke-width: 0.5"/>
     </g>
     <g id="line2d_24">
      <g>
       <use xlink:href="#m3c58ce05f9" x="198.156066" y="147.058125" style="stroke: #000000; stroke-width: 0.8"/>
      </g>
     </g>
     <g id="text_14">
      <!-- 10 -->
      <g transform="translate(178.431066 150.857344) scale(0.1 -0.1)">
       <use xlink:href="#DejaVuSans-31"/>
       <use xlink:href="#DejaVuSans-30" x="63.623047"/>
      </g>
     </g>
    </g>
    <g id="ytick_9">
     <g id="line2d_25">
      <path d="M 198.156066 126.268125 
L 329.450184 126.268125 
" clip-path="url(#p8ef22816c1)" style="fill: none; stroke-dasharray: 1.85,0.8; stroke-dashoffset: 0; stroke: #b0b0b0; stroke-width: 0.5"/>
     </g>
     <g id="line2d_26">
      <g>
       <use xlink:href="#m3c58ce05f9" x="198.156066" y="126.268125" style="stroke: #000000; stroke-width: 0.8"/>
      </g>
     </g>
     <g id="text_15">
      <!-- 15 -->
      <g transform="translate(178.431066 130.067344) scale(0.1 -0.1)">
       <use xlink:href="#DejaVuSans-31"/>
       <use xlink:href="#DejaVuSans-35" x="63.623047"/>
      </g>
     </g>
    </g>
    <g id="ytick_10">
     <g id="line2d_27">
      <path d="M 198.156066 105.478125 
L 329.450184 105.478125 
" clip-path="url(#p8ef22816c1)" style="fill: none; stroke-dasharray: 1.85,0.8; stroke-dashoffset: 0; stroke: #b0b0b0; stroke-width: 0.5"/>
     </g>
     <g id="line2d_28">
      <g>
       <use xlink:href="#m3c58ce05f9" x="198.156066" y="105.478125" style="stroke: #000000; stroke-width: 0.8"/>
      </g>
     </g>
     <g id="text_16">
      <!-- 20 -->
      <g transform="translate(178.431066 109.277344) scale(0.1 -0.1)">
       <use xlink:href="#DejaVuSans-32"/>
       <use xlink:href="#DejaVuSans-30" x="63.623047"/>
      </g>
     </g>
    </g>
    <g id="ytick_11">
     <g id="line2d_29">
      <path d="M 198.156066 84.688125 
L 329.450184 84.688125 
" clip-path="url(#p8ef22816c1)" style="fill: none; stroke-dasharray: 1.85,0.8; stroke-dashoffset: 0; stroke: #b0b0b0; stroke-width: 0.5"/>
     </g>
     <g id="line2d_30">
      <g>
       <use xlink:href="#m3c58ce05f9" x="198.156066" y="84.688125" style="stroke: #000000; stroke-width: 0.8"/>
      </g>
     </g>
     <g id="text_17">
      <!-- 25 -->
      <g transform="translate(178.431066 88.487344) scale(0.1 -0.1)">
       <use xlink:href="#DejaVuSans-32"/>
       <use xlink:href="#DejaVuSans-35" x="63.623047"/>
      </g>
     </g>
    </g>
    <g id="ytick_12">
     <g id="line2d_31">
      <path d="M 198.156066 63.898125 
L 329.450184 63.898125 
" clip-path="url(#p8ef22816c1)" style="fill: none; stroke-dasharray: 1.85,0.8; stroke-dashoffset: 0; stroke: #b0b0b0; stroke-width: 0.5"/>
     </g>
     <g id="line2d_32">
      <g>
       <use xlink:href="#m3c58ce05f9" x="198.156066" y="63.898125" style="stroke: #000000; stroke-width: 0.8"/>
      </g>
     </g>
     <g id="text_18">
      <!-- 30 -->
      <g transform="translate(178.431066 67.697344) scale(0.1 -0.1)">
       <defs>
        <path id="DejaVuSans-33" d="M 2597 2516 
Q 3050 2419 3304 2112 
Q 3559 1806 3559 1356 
Q 3559 666 3084 287 
Q 2609 -91 1734 -91 
Q 1441 -91 1130 -33 
Q 819 25 488 141 
L 488 750 
Q 750 597 1062 519 
Q 1375 441 1716 441 
Q 2309 441 2620 675 
Q 2931 909 2931 1356 
Q 2931 1769 2642 2001 
Q 2353 2234 1838 2234 
L 1294 2234 
L 1294 2753 
L 1863 2753 
Q 2328 2753 2575 2939 
Q 2822 3125 2822 3475 
Q 2822 3834 2567 4026 
Q 2313 4219 1838 4219 
Q 1578 4219 1281 4162 
Q 984 4106 628 3988 
L 628 4550 
Q 988 4650 1302 4700 
Q 1616 4750 1894 4750 
Q 2613 4750 3031 4423 
Q 3450 4097 3450 3541 
Q 3450 3153 3228 2886 
Q 3006 2619 2597 2516 
z
" transform="scale(0.015625)"/>
       </defs>
       <use xlink:href="#DejaVuSans-33"/>
       <use xlink:href="#DejaVuSans-30" x="63.623047"/>
      </g>
     </g>
    </g>
    <g id="ytick_13">
     <g id="line2d_33">
      <path d="M 198.156066 43.108125 
L 329.450184 43.108125 
" clip-path="url(#p8ef22816c1)" style="fill: none; stroke-dasharray: 1.85,0.8; stroke-dashoffset: 0; stroke: #b0b0b0; stroke-width: 0.5"/>
     </g>
     <g id="line2d_34">
      <g>
       <use xlink:href="#m3c58ce05f9" x="198.156066" y="43.108125" style="stroke: #000000; stroke-width: 0.8"/>
      </g>
     </g>
     <g id="text_19">
      <!-- 35 -->
      <g transform="translate(178.431066 46.907344) scale(0.1 -0.1)">
       <use xlink:href="#DejaVuSans-33"/>
       <use xlink:href="#DejaVuSans-35" x="63.623047"/>
      </g>
     </g>
    </g>
    <g id="ytick_14">
     <g id="line2d_35">
      <path d="M 198.156066 22.318125 
L 329.450184 22.318125 
" clip-path="url(#p8ef22816c1)" style="fill: none; stroke-dasharray: 1.85,0.8; stroke-dashoffset: 0; stroke: #b0b0b0; stroke-width: 0.5"/>
     </g>
     <g id="line2d_36">
      <g>
       <use xlink:href="#m3c58ce05f9" x="198.156066" y="22.318125" style="stroke: #000000; stroke-width: 0.8"/>
      </g>
     </g>
     <g id="text_20">
      <!-- 40 -->
      <g transform="translate(178.431066 26.117344) scale(0.1 -0.1)">
       <use xlink:href="#DejaVuSans-34"/>
       <use xlink:href="#DejaVuSans-30" x="63.623047"/>
      </g>
     </g>
    </g>
   </g>
   <g id="LineCollection_3">
    <path d="M 237.544301 96.876042 
L 237.544301 69.856646 
" clip-path="url(#p8ef22816c1)" style="fill: none; stroke: #000000; stroke-width: 5"/>
    <path d="M 290.061949 99.060926 
L 290.061949 69.842822 
" clip-path="url(#p8ef22816c1)" style="fill: none; stroke: #000000; stroke-width: 5"/>
   </g>
   <g id="LineCollection_4">
    <path d="M 237.544301 137.405136 
L 237.544301 32.986139 
" clip-path="url(#p8ef22816c1)" style="fill: none; stroke: #000000"/>
    <path d="M 290.061949 142.888081 
L 290.061949 26.015667 
" clip-path="url(#p8ef22816c1)" style="fill: none; stroke: #000000"/>
   </g>
   <g id="patch_8">
    <path d="M 198.156066 188.638125 
L 198.156066 22.318125 
" style="fill: none; stroke: #000000; stroke-width: 0.8; stroke-linejoin: miter; stroke-linecap: square"/>
   </g>
   <g id="patch_9">
    <path d="M 329.450184 188.638125 
L 329.450184 22.318125 
" style="fill: none; stroke: #000000; stroke-width: 0.8; stroke-linejoin: miter; stroke-linecap: square"/>
   </g>
   <g id="patch_10">
    <path d="M 198.156066 188.638125 
L 329.450184 188.638125 
" style="fill: none; stroke: #000000; stroke-width: 0.8; stroke-linejoin: miter; stroke-linecap: square"/>
   </g>
   <g id="patch_11">
    <path d="M 198.156066 22.318125 
L 329.450184 22.318125 
" style="fill: none; stroke: #000000; stroke-width: 0.8; stroke-linejoin: miter; stroke-linecap: square"/>
   </g>
   <g id="PathCollection_2">
    <g clip-path="url(#p8ef22816c1)">
     <use xlink:href="#mf947bc3a5c" x="237.544301" y="81.589278" style="fill: #ffffff; stroke: #ffffff"/>
     <use xlink:href="#mf947bc3a5c" x="290.061949" y="83.16298" style="fill: #ffffff; stroke: #ffffff"/>
    </g>
   </g>
   <g id="text_21">
    <!-- Tesla A100 -->
    <g transform="translate(231.533438 16.318125) scale(0.12 -0.12)">
     <defs>
      <path id="DejaVuSans-6c" d="M 603 4863 
L 1178 4863 
L 1178 0 
L 603 0 
L 603 4863 
z
" transform="scale(0.015625)"/>
     </defs>
     <use xlink:href="#DejaVuSans-54"/>
     <use xlink:href="#DejaVuSans-65" x="44.083984"/>
     <use xlink:href="#DejaVuSans-73" x="105.607422"/>
     <use xlink:href="#DejaVuSans-6c" x="157.707031"/>
     <use xlink:href="#DejaVuSans-61" x="185.490234"/>
     <use xlink:href="#DejaVuSans-20" x="246.769531"/>
     <use xlink:href="#DejaVuSans-41" x="278.556641"/>
     <use xlink:href="#DejaVuSans-31" x="346.964844"/>
     <use xlink:href="#DejaVuSans-30" x="410.587891"/>
     <use xlink:href="#DejaVuSans-30" x="474.210938"/>
    </g>
   </g>
  </g>
  <g id="axes_3">
   <g id="patch_12">
    <path d="M 355.709007 188.638125 
L 487.003125 188.638125 
L 487.003125 22.318125 
L 355.709007 22.318125 
z
" style="fill: #ffffff"/>
   </g>
   <g id="PolyCollection_5">
    <defs>
     <path id="mcd932a48ac" d="M 395.685531 -54.839707 
L 394.508954 -54.839707 
L 394.46697 -56.130601 
L 394.428559 -57.421494 
L 394.39111 -58.712387 
L 394.351563 -60.00328 
L 394.306908 -61.294173 
L 394.254562 -62.585066 
L 394.19252 -63.875959 
L 394.119266 -65.166852 
L 394.033513 -66.457745 
L 393.933898 -67.748639 
L 393.818811 -69.039532 
L 393.686443 -70.330425 
L 393.535098 -71.621318 
L 393.363698 -72.912211 
L 393.172317 -74.203104 
L 392.962556 -75.493997 
L 392.737579 -76.78489 
L 392.501729 -78.075783 
L 392.259717 -79.366676 
L 392.015554 -80.65757 
L 391.771425 -81.948463 
L 391.526794 -83.239356 
L 391.277962 -84.530249 
L 391.018243 -85.821142 
L 390.73877 -87.112035 
L 390.429822 -88.402928 
L 390.082438 -89.693821 
L 389.689999 -90.984714 
L 389.249467 -92.275608 
L 388.762001 -93.566501 
L 388.232828 -94.857394 
L 387.670391 -96.148287 
L 387.084992 -97.43918 
L 386.487298 -98.730073 
L 385.887126 -100.020966 
L 385.292893 -101.311859 
L 384.711928 -102.602752 
L 384.151592 -103.893646 
L 383.620871 -105.184539 
L 383.131928 -106.475432 
L 382.701025 -107.766325 
L 382.348336 -109.057218 
L 382.096468 -110.348111 
L 381.967831 -111.639004 
L 381.981327 -112.929897 
L 382.149055 -114.22079 
L 382.473731 -115.511683 
L 382.947422 -116.802577 
L 383.551861 -118.09347 
L 384.260303 -119.384363 
L 385.040578 -120.675256 
L 385.858759 -121.966149 
L 386.682811 -123.257042 
L 387.485618 -124.547935 
L 388.246965 -125.838828 
L 388.95426 -127.129721 
L 389.602046 -128.420615 
L 390.190543 -129.711508 
L 390.723654 -131.002401 
L 391.2069 -132.293294 
L 391.645717 -133.584187 
L 392.044396 -134.87508 
L 392.405775 -136.165973 
L 392.731566 -137.456866 
L 393.023053 -138.747759 
L 393.281841 -140.038652 
L 393.510377 -141.329546 
L 393.71207 -142.620439 
L 393.891011 -143.911332 
L 394.051418 -145.202225 
L 394.197007 -146.493118 
L 394.330501 -147.784011 
L 394.453401 -149.074904 
L 394.566062 -150.365797 
L 394.668021 -151.65669 
L 394.758445 -152.947584 
L 394.83658 -154.238477 
L 394.902087 -155.52937 
L 394.955207 -156.820263 
L 394.996757 -158.111156 
L 395.028002 -159.402049 
L 395.050443 -160.692942 
L 395.065602 -161.983835 
L 395.074831 -163.274728 
L 395.079183 -164.565622 
L 395.079357 -165.856515 
L 395.075698 -167.147408 
L 395.068276 -168.438301 
L 395.056999 -169.729194 
L 395.041779 -171.020087 
L 395.022699 -172.31098 
L 395.000177 -173.601873 
L 394.975088 -174.892766 
L 394.948799 -176.183659 
L 394.92311 -177.474553 
L 394.900085 -178.765446 
L 394.881795 -180.056339 
L 394.870015 -181.347232 
L 394.865947 -182.638125 
L 395.328539 -182.638125 
L 395.328539 -182.638125 
L 395.324471 -181.347232 
L 395.312691 -180.056339 
L 395.2944 -178.765446 
L 395.271375 -177.474553 
L 395.245686 -176.183659 
L 395.219397 -174.892766 
L 395.194308 -173.601873 
L 395.171787 -172.31098 
L 395.152706 -171.020087 
L 395.137486 -169.729194 
L 395.12621 -168.438301 
L 395.118787 -167.147408 
L 395.115128 -165.856515 
L 395.115302 -164.565622 
L 395.119655 -163.274728 
L 395.128883 -161.983835 
L 395.144042 -160.692942 
L 395.166483 -159.402049 
L 395.197728 -158.111156 
L 395.239279 -156.820263 
L 395.292398 -155.52937 
L 395.357905 -154.238477 
L 395.436041 -152.947584 
L 395.526464 -151.65669 
L 395.628423 -150.365797 
L 395.741084 -149.074904 
L 395.863984 -147.784011 
L 395.997478 -146.493118 
L 396.143068 -145.202225 
L 396.303474 -143.911332 
L 396.482415 -142.620439 
L 396.684108 -141.329546 
L 396.912644 -140.038652 
L 397.171432 -138.747759 
L 397.462919 -137.456866 
L 397.78871 -136.165973 
L 398.15009 -134.87508 
L 398.548768 -133.584187 
L 398.987585 -132.293294 
L 399.470832 -131.002401 
L 400.003942 -129.711508 
L 400.592439 -128.420615 
L 401.240225 -127.129721 
L 401.947521 -125.838828 
L 402.708867 -124.547935 
L 403.511674 -123.257042 
L 404.335726 -121.966149 
L 405.153907 -120.675256 
L 405.934182 -119.384363 
L 406.642624 -118.09347 
L 407.247063 -116.802577 
L 407.720755 -115.511683 
L 408.045431 -114.22079 
L 408.213158 -112.929897 
L 408.226654 -111.639004 
L 408.098017 -110.348111 
L 407.846149 -109.057218 
L 407.49346 -107.766325 
L 407.062557 -106.475432 
L 406.573615 -105.184539 
L 406.042893 -103.893646 
L 405.482557 -102.602752 
L 404.901593 -101.311859 
L 404.307359 -100.020966 
L 403.707187 -98.730073 
L 403.109493 -97.43918 
L 402.524095 -96.148287 
L 401.961658 -94.857394 
L 401.432484 -93.566501 
L 400.945018 -92.275608 
L 400.504486 -90.984714 
L 400.112048 -89.693821 
L 399.764664 -88.402928 
L 399.455716 -87.112035 
L 399.176242 -85.821142 
L 398.916523 -84.530249 
L 398.667691 -83.239356 
L 398.42306 -81.948463 
L 398.178931 -80.65757 
L 397.934768 -79.366676 
L 397.692757 -78.075783 
L 397.456906 -76.78489 
L 397.23193 -75.493997 
L 397.022168 -74.203104 
L 396.830787 -72.912211 
L 396.659387 -71.621318 
L 396.508042 -70.330425 
L 396.375674 -69.039532 
L 396.260587 -67.748639 
L 396.160973 -66.457745 
L 396.075219 -65.166852 
L 396.001966 -63.875959 
L 395.939924 -62.585066 
L 395.887577 -61.294173 
L 395.842922 -60.00328 
L 395.803375 -58.712387 
L 395.765926 -57.421494 
L 395.727516 -56.130601 
L 395.685531 -54.839707 
z
" style="stroke: #76b900"/>
    </defs>
    <g clip-path="url(#p740a64803d)">
     <use xlink:href="#mcd932a48ac" x="0" y="212.51625" style="fill: #76b900; stroke: #76b900"/>
    </g>
   </g>
   <g id="PolyCollection_6">
    <defs>
     <path id="m070ad7b104" d="M 447.881551 -31.438125 
L 447.348228 -31.438125 
L 447.341364 -32.550219 
L 447.337576 -33.662312 
L 447.335846 -34.774406 
L 447.334923 -35.886499 
L 447.333499 -36.998593 
L 447.330392 -38.110686 
L 447.324713 -39.22278 
L 447.315977 -40.334873 
L 447.304159 -41.446967 
L 447.289674 -42.55906 
L 447.273295 -43.671154 
L 447.256032 -44.783247 
L 447.23898 -45.895341 
L 447.223165 -47.007434 
L 447.209407 -48.119528 
L 447.198199 -49.231621 
L 447.189617 -50.343715 
L 447.183249 -51.455809 
L 447.178145 -52.567902 
L 447.172792 -53.679996 
L 447.165116 -54.792089 
L 447.152508 -55.904183 
L 447.131907 -57.016276 
L 447.099929 -58.12837 
L 447.053052 -59.240463 
L 446.987852 -60.352557 
L 446.901286 -61.46465 
L 446.790987 -62.576744 
L 446.655554 -63.688837 
L 446.494813 -64.800931 
L 446.310002 -65.913024 
L 446.103864 -67.025118 
L 445.880604 -68.137212 
L 445.645711 -69.249305 
L 445.405616 -70.361399 
L 445.167204 -71.473492 
L 444.937206 -72.585586 
L 444.721521 -73.697679 
L 444.524537 -74.809773 
L 444.348527 -75.921866 
L 444.193205 -77.03396 
L 444.055508 -78.146053 
L 443.929643 -79.258147 
L 443.807412 -80.37024 
L 443.678803 -81.482334 
L 443.532773 -82.594427 
L 443.358176 -83.706521 
L 443.144733 -84.818614 
L 442.883976 -85.930708 
L 442.570069 -87.042802 
L 442.200442 -88.154895 
L 441.776164 -89.266989 
L 441.302006 -90.379082 
L 440.786147 -91.491176 
L 440.239542 -92.603269 
L 439.674965 -93.715363 
L 439.10584 -94.827456 
L 438.545006 -95.93955 
L 438.003572 -97.051643 
L 437.490086 -98.163737 
L 437.010146 -99.27583 
L 436.566562 -100.387924 
L 436.160042 -101.500017 
L 435.790297 -102.612111 
L 435.45734 -103.724204 
L 435.16271 -104.836298 
L 434.910363 -105.948392 
L 434.707009 -107.060485 
L 434.561814 -108.172579 
L 434.485478 -109.284672 
L 434.488867 -110.396766 
L 434.581422 -111.508859 
L 434.76964 -112.620953 
L 435.055862 -113.733046 
L 435.437569 -114.84514 
L 435.907263 -115.957233 
L 436.452912 -117.069327 
L 437.058875 -118.18142 
L 437.707138 -119.293514 
L 438.378713 -120.405607 
L 439.055023 -121.517701 
L 439.719152 -122.629795 
L 440.356851 -123.741888 
L 440.95724 -124.853982 
L 441.513172 -125.966075 
L 442.021254 -127.078169 
L 442.481548 -128.190262 
L 442.897006 -129.302356 
L 443.272722 -130.414449 
L 443.615071 -131.526543 
L 443.930871 -132.638636 
L 444.226611 -133.75073 
L 444.507861 -134.862823 
L 444.778866 -135.974917 
L 445.042355 -137.08701 
L 445.299547 -138.199104 
L 445.550305 -139.311197 
L 445.793406 -140.423291 
L 446.026872 -141.535385 
L 449.202907 -141.535385 
L 449.202907 -141.535385 
L 449.436374 -140.423291 
L 449.679474 -139.311197 
L 449.930232 -138.199104 
L 450.187424 -137.08701 
L 450.450914 -135.974917 
L 450.721919 -134.862823 
L 451.003169 -133.75073 
L 451.298909 -132.638636 
L 451.614708 -131.526543 
L 451.957058 -130.414449 
L 452.332773 -129.302356 
L 452.748232 -128.190262 
L 453.208526 -127.078169 
L 453.716607 -125.966075 
L 454.272539 -124.853982 
L 454.872928 -123.741888 
L 455.510627 -122.629795 
L 456.174756 -121.517701 
L 456.851067 -120.405607 
L 457.522641 -119.293514 
L 458.170904 -118.18142 
L 458.776867 -117.069327 
L 459.322517 -115.957233 
L 459.792211 -114.84514 
L 460.173918 -113.733046 
L 460.460139 -112.620953 
L 460.648357 -111.508859 
L 460.740913 -110.396766 
L 460.744301 -109.284672 
L 460.667965 -108.172579 
L 460.52277 -107.060485 
L 460.319416 -105.948392 
L 460.067069 -104.836298 
L 459.77244 -103.724204 
L 459.439483 -102.612111 
L 459.069738 -101.500017 
L 458.663218 -100.387924 
L 458.219633 -99.27583 
L 457.739694 -98.163737 
L 457.226208 -97.051643 
L 456.684774 -95.93955 
L 456.123939 -94.827456 
L 455.554815 -93.715363 
L 454.990237 -92.603269 
L 454.443632 -91.491176 
L 453.927774 -90.379082 
L 453.453615 -89.266989 
L 453.029338 -88.154895 
L 452.65971 -87.042802 
L 452.345803 -85.930708 
L 452.085046 -84.818614 
L 451.871604 -83.706521 
L 451.697006 -82.594427 
L 451.550977 -81.482334 
L 451.422367 -80.37024 
L 451.300137 -79.258147 
L 451.174271 -78.146053 
L 451.036574 -77.03396 
L 450.881253 -75.921866 
L 450.705243 -74.809773 
L 450.508259 -73.697679 
L 450.292574 -72.585586 
L 450.062576 -71.473492 
L 449.824164 -70.361399 
L 449.584069 -69.249305 
L 449.349176 -68.137212 
L 449.125916 -67.025118 
L 448.919777 -65.913024 
L 448.734967 -64.800931 
L 448.574226 -63.688837 
L 448.438793 -62.576744 
L 448.328493 -61.46465 
L 448.241927 -60.352557 
L 448.176728 -59.240463 
L 448.12985 -58.12837 
L 448.097872 -57.016276 
L 448.077272 -55.904183 
L 448.064664 -54.792089 
L 448.056987 -53.679996 
L 448.051635 -52.567902 
L 448.046531 -51.455809 
L 448.040162 -50.343715 
L 448.03158 -49.231621 
L 448.020373 -48.119528 
L 448.006614 -47.007434 
L 447.990799 -45.895341 
L 447.973747 -44.783247 
L 447.956484 -43.671154 
L 447.940105 -42.55906 
L 447.92562 -41.446967 
L 447.913802 -40.334873 
L 447.905066 -39.22278 
L 447.899387 -38.110686 
L 447.89628 -36.998593 
L 447.894856 -35.886499 
L 447.893933 -34.774406 
L 447.892204 -33.662312 
L 447.888416 -32.550219 
L 447.881551 -31.438125 
z
" style="stroke: #ed1c24"/>
    </defs>
    <g clip-path="url(#p740a64803d)">
     <use xlink:href="#m070ad7b104" x="0" y="212.51625" style="fill: #ed1c24; stroke: #ed1c24"/>
    </g>
   </g>
   <g id="matplotlib.axis_5">
    <g id="xtick_5">
     <g id="line2d_37">
      <path d="M 395.097243 188.638125 
L 395.097243 22.318125 
" clip-path="url(#p740a64803d)" style="fill: none; stroke-dasharray: 1.85,0.8; stroke-dashoffset: 0; stroke: #b0b0b0; stroke-width: 0.5"/>
     </g>
     <g id="line2d_38">
      <g>
       <use xlink:href="#m05ecd91eff" x="395.097243" y="188.638125" style="stroke: #000000; stroke-width: 0.8"/>
      </g>
     </g>
     <g id="text_22">
      <!-- PMD -->
      <g transform="translate(383.918336 203.236563) scale(0.1 -0.1)">
       <use xlink:href="#DejaVuSans-50"/>
       <use xlink:href="#DejaVuSans-4d" x="60.302734"/>
       <use xlink:href="#DejaVuSans-44" x="146.582031"/>
      </g>
     </g>
    </g>
    <g id="xtick_6">
     <g id="line2d_39">
      <path d="M 447.61489 188.638125 
L 447.61489 22.318125 
" clip-path="url(#p740a64803d)" style="fill: none; stroke-dasharray: 1.85,0.8; stroke-dashoffset: 0; stroke: #b0b0b0; stroke-width: 0.5"/>
     </g>
     <g id="line2d_40">
      <g>
       <use xlink:href="#m05ecd91eff" x="447.61489" y="188.638125" style="stroke: #000000; stroke-width: 0.8"/>
      </g>
     </g>
     <g id="text_23">
      <!-- Square wave -->
      <g transform="translate(415.235983 203.236563) scale(0.1 -0.1)">
       <use xlink:href="#DejaVuSans-53"/>
       <use xlink:href="#DejaVuSans-71" x="63.476562"/>
       <use xlink:href="#DejaVuSans-75" x="126.953125"/>
       <use xlink:href="#DejaVuSans-61" x="190.332031"/>
       <use xlink:href="#DejaVuSans-72" x="251.611328"/>
       <use xlink:href="#DejaVuSans-65" x="290.474609"/>
       <use xlink:href="#DejaVuSans-20" x="351.998047"/>
       <use xlink:href="#DejaVuSans-77" x="383.785156"/>
       <use xlink:href="#DejaVuSans-61" x="465.572266"/>
       <use xlink:href="#DejaVuSans-76" x="526.851562"/>
       <use xlink:href="#DejaVuSans-65" x="586.03125"/>
      </g>
     </g>
    </g>
   </g>
   <g id="matplotlib.axis_6">
    <g id="ytick_15">
     <g id="line2d_41">
      <path d="M 355.709007 179.921154 
L 487.003125 179.921154 
" clip-path="url(#p740a64803d)" style="fill: none; stroke-dasharray: 1.85,0.8; stroke-dashoffset: 0; stroke: #b0b0b0; stroke-width: 0.5"/>
     </g>
     <g id="line2d_42">
      <g>
       <use xlink:href="#m3c58ce05f9" x="355.709007" y="179.921154" style="stroke: #000000; stroke-width: 0.8"/>
      </g>
     </g>
     <g id="text_24">
      <!-- 94 -->
      <g transform="translate(335.984007 183.720373) scale(0.1 -0.1)">
       <defs>
        <path id="DejaVuSans-39" d="M 703 97 
L 703 672 
Q 941 559 1184 500 
Q 1428 441 1663 441 
Q 2288 441 2617 861 
Q 2947 1281 2994 2138 
Q 2813 1869 2534 1725 
Q 2256 1581 1919 1581 
Q 1219 1581 811 2004 
Q 403 2428 403 3163 
Q 403 3881 828 4315 
Q 1253 4750 1959 4750 
Q 2769 4750 3195 4129 
Q 3622 3509 3622 2328 
Q 3622 1225 3098 567 
Q 2575 -91 1691 -91 
Q 1453 -91 1209 -44 
Q 966 3 703 97 
z
M 1959 2075 
Q 2384 2075 2632 2365 
Q 2881 2656 2881 3163 
Q 2881 3666 2632 3958 
Q 2384 4250 1959 4250 
Q 1534 4250 1286 3958 
Q 1038 3666 1038 3163 
Q 1038 2656 1286 2365 
Q 1534 2075 1959 2075 
z
" transform="scale(0.015625)"/>
       </defs>
       <use xlink:href="#DejaVuSans-39"/>
       <use xlink:href="#DejaVuSans-34" x="63.623047"/>
      </g>
     </g>
    </g>
    <g id="ytick_16">
     <g id="line2d_43">
      <path d="M 355.709007 155.883154 
L 487.003125 155.883154 
" clip-path="url(#p740a64803d)" style="fill: none; stroke-dasharray: 1.85,0.8; stroke-dashoffset: 0; stroke: #b0b0b0; stroke-width: 0.5"/>
     </g>
     <g id="line2d_44">
      <g>
       <use xlink:href="#m3c58ce05f9" x="355.709007" y="155.883154" style="stroke: #000000; stroke-width: 0.8"/>
      </g>
     </g>
     <g id="text_25">
      <!-- 96 -->
      <g transform="translate(335.984007 159.682373) scale(0.1 -0.1)">
       <use xlink:href="#DejaVuSans-39"/>
       <use xlink:href="#DejaVuSans-36" x="63.623047"/>
      </g>
     </g>
    </g>
    <g id="ytick_17">
     <g id="line2d_45">
      <path d="M 355.709007 131.845155 
L 487.003125 131.845155 
" clip-path="url(#p740a64803d)" style="fill: none; stroke-dasharray: 1.85,0.8; stroke-dashoffset: 0; stroke: #b0b0b0; stroke-width: 0.5"/>
     </g>
     <g id="line2d_46">
      <g>
       <use xlink:href="#m3c58ce05f9" x="355.709007" y="131.845155" style="stroke: #000000; stroke-width: 0.8"/>
      </g>
     </g>
     <g id="text_26">
      <!-- 98 -->
      <g transform="translate(335.984007 135.644373) scale(0.1 -0.1)">
       <use xlink:href="#DejaVuSans-39"/>
       <use xlink:href="#DejaVuSans-38" x="63.623047"/>
      </g>
     </g>
    </g>
    <g id="ytick_18">
     <g id="line2d_47">
      <path d="M 355.709007 107.807155 
L 487.003125 107.807155 
" clip-path="url(#p740a64803d)" style="fill: none; stroke-dasharray: 1.85,0.8; stroke-dashoffset: 0; stroke: #b0b0b0; stroke-width: 0.5"/>
     </g>
     <g id="line2d_48">
      <g>
       <use xlink:href="#m3c58ce05f9" x="355.709007" y="107.807155" style="stroke: #000000; stroke-width: 0.8"/>
      </g>
     </g>
     <g id="text_27">
      <!-- 100 -->
      <g transform="translate(329.621507 111.606374) scale(0.1 -0.1)">
       <use xlink:href="#DejaVuSans-31"/>
       <use xlink:href="#DejaVuSans-30" x="63.623047"/>
       <use xlink:href="#DejaVuSans-30" x="127.246094"/>
      </g>
     </g>
    </g>
    <g id="ytick_19">
     <g id="line2d_49">
      <path d="M 355.709007 83.769155 
L 487.003125 83.769155 
" clip-path="url(#p740a64803d)" style="fill: none; stroke-dasharray: 1.85,0.8; stroke-dashoffset: 0; stroke: #b0b0b0; stroke-width: 0.5"/>
     </g>
     <g id="line2d_50">
      <g>
       <use xlink:href="#m3c58ce05f9" x="355.709007" y="83.769155" style="stroke: #000000; stroke-width: 0.8"/>
      </g>
     </g>
     <g id="text_28">
      <!-- 102 -->
      <g transform="translate(329.621507 87.568374) scale(0.1 -0.1)">
       <use xlink:href="#DejaVuSans-31"/>
       <use xlink:href="#DejaVuSans-30" x="63.623047"/>
       <use xlink:href="#DejaVuSans-32" x="127.246094"/>
      </g>
     </g>
    </g>
    <g id="ytick_20">
     <g id="line2d_51">
      <path d="M 355.709007 59.731156 
L 487.003125 59.731156 
" clip-path="url(#p740a64803d)" style="fill: none; stroke-dasharray: 1.85,0.8; stroke-dashoffset: 0; stroke: #b0b0b0; stroke-width: 0.5"/>
     </g>
     <g id="line2d_52">
      <g>
       <use xlink:href="#m3c58ce05f9" x="355.709007" y="59.731156" style="stroke: #000000; stroke-width: 0.8"/>
      </g>
     </g>
     <g id="text_29">
      <!-- 104 -->
      <g transform="translate(329.621507 63.530375) scale(0.1 -0.1)">
       <use xlink:href="#DejaVuSans-31"/>
       <use xlink:href="#DejaVuSans-30" x="63.623047"/>
       <use xlink:href="#DejaVuSans-34" x="127.246094"/>
      </g>
     </g>
    </g>
    <g id="ytick_21">
     <g id="line2d_53">
      <path d="M 355.709007 35.693156 
L 487.003125 35.693156 
" clip-path="url(#p740a64803d)" style="fill: none; stroke-dasharray: 1.85,0.8; stroke-dashoffset: 0; stroke: #b0b0b0; stroke-width: 0.5"/>
     </g>
     <g id="line2d_54">
      <g>
       <use xlink:href="#m3c58ce05f9" x="355.709007" y="35.693156" style="stroke: #000000; stroke-width: 0.8"/>
      </g>
     </g>
     <g id="text_30">
      <!-- 106 -->
      <g transform="translate(329.621507 39.492375) scale(0.1 -0.1)">
       <use xlink:href="#DejaVuSans-31"/>
       <use xlink:href="#DejaVuSans-30" x="63.623047"/>
       <use xlink:href="#DejaVuSans-36" x="127.246094"/>
      </g>
     </g>
    </g>
   </g>
   <g id="LineCollection_5">
    <path d="M 395.097243 113.3403 
L 395.097243 94.777907 
" clip-path="url(#p740a64803d)" style="fill: none; stroke: #000000; stroke-width: 5"/>
    <path d="M 447.61489 115.849984 
L 447.61489 96.937147 
" clip-path="url(#p740a64803d)" style="fill: none; stroke: #000000; stroke-width: 5"/>
   </g>
   <g id="LineCollection_6">
    <path d="M 395.097243 141.183889 
L 395.097243 66.934318 
" clip-path="url(#p740a64803d)" style="fill: none; stroke: #000000"/>
    <path d="M 447.61489 144.219239 
L 447.61489 70.980865 
" clip-path="url(#p740a64803d)" style="fill: none; stroke: #000000"/>
   </g>
   <g id="patch_13">
    <path d="M 355.709007 188.638125 
L 355.709007 22.318125 
" style="fill: none; stroke: #000000; stroke-width: 0.8; stroke-linejoin: miter; stroke-linecap: square"/>
   </g>
   <g id="patch_14">
    <path d="M 487.003125 188.638125 
L 487.003125 22.318125 
" style="fill: none; stroke: #000000; stroke-width: 0.8; stroke-linejoin: miter; stroke-linecap: square"/>
   </g>
   <g id="patch_15">
    <path d="M 355.709007 188.638125 
L 487.003125 188.638125 
" style="fill: none; stroke: #000000; stroke-width: 0.8; stroke-linejoin: miter; stroke-linecap: square"/>
   </g>
   <g id="patch_16">
    <path d="M 355.709007 22.318125 
L 487.003125 22.318125 
" style="fill: none; stroke: #000000; stroke-width: 0.8; stroke-linejoin: miter; stroke-linecap: square"/>
   </g>
   <g id="PathCollection_3">
    <g clip-path="url(#p740a64803d)">
     <use xlink:href="#mf947bc3a5c" x="395.097243" y="101.964136" style="fill: #ffffff; stroke: #ffffff"/>
     <use xlink:href="#mf947bc3a5c" x="447.61489" y="104.191698" style="fill: #ffffff; stroke: #ffffff"/>
    </g>
   </g>
   <g id="text_31">
    <!-- RTX 3090 -->
    <g transform="translate(392.670441 16.318125) scale(0.12 -0.12)">
     <defs>
      <path id="DejaVuSans-52" d="M 2841 2188 
Q 3044 2119 3236 1894 
Q 3428 1669 3622 1275 
L 4263 0 
L 3584 0 
L 2988 1197 
Q 2756 1666 2539 1819 
Q 2322 1972 1947 1972 
L 1259 1972 
L 1259 0 
L 628 0 
L 628 4666 
L 2053 4666 
Q 2853 4666 3247 4331 
Q 3641 3997 3641 3322 
Q 3641 2881 3436 2590 
Q 3231 2300 2841 2188 
z
M 1259 4147 
L 1259 2491 
L 2053 2491 
Q 2509 2491 2742 2702 
Q 2975 2913 2975 3322 
Q 2975 3731 2742 3939 
Q 2509 4147 2053 4147 
L 1259 4147 
z
" transform="scale(0.015625)"/>
     </defs>
     <use xlink:href="#DejaVuSans-52"/>
     <use xlink:href="#DejaVuSans-54" x="62.232422"/>
     <use xlink:href="#DejaVuSans-58" x="123.316406"/>
     <use xlink:href="#DejaVuSans-20" x="191.822266"/>
     <use xlink:href="#DejaVuSans-33" x="223.609375"/>
     <use xlink:href="#DejaVuSans-30" x="287.232422"/>
     <use xlink:href="#DejaVuSans-39" x="350.855469"/>
     <use xlink:href="#DejaVuSans-30" x="414.478516"/>
    </g>
   </g>
  </g>
 </g>
 <defs>
  <clipPath id="pc957a28cf8">
   <rect x="40.603125" y="22.318125" width="131.294118" height="166.32"/>
  </clipPath>
  <clipPath id="p8ef22816c1">
   <rect x="198.156066" y="22.318125" width="131.294118" height="166.32"/>
  </clipPath>
  <clipPath id="p740a64803d">
   <rect x="355.709007" y="22.318125" width="131.294118" height="166.32"/>
  </clipPath>
 </defs>
</svg>
