<?xml version="1.0" encoding="utf-8" standalone="no"?>
<!DOCTYPE svg PUBLIC "-//W3C//DTD SVG 1.1//EN"
  "http://www.w3.org/Graphics/SVG/1.1/DTD/svg11.dtd">
<svg xmlns:xlink="http://www.w3.org/1999/xlink" width="1170.165625pt" height="614.274375pt" viewBox="0 0 1170.165625 614.274375" xmlns="http://www.w3.org/2000/svg" version="1.1">
 <metadata>
  <rdf:RDF xmlns:dc="http://purl.org/dc/elements/1.1/" xmlns:cc="http://creativecommons.org/ns#" xmlns:rdf="http://www.w3.org/1999/02/22-rdf-syntax-ns#">
   <cc:Work>
    <dc:type rdf:resource="http://purl.org/dc/dcmitype/StillImage"/>
    <dc:date>2023-04-24T14:47:19.145017</dc:date>
    <dc:format>image/svg+xml</dc:format>
    <dc:creator>
     <cc:Agent>
      <dc:title>Matplotlib v3.7.1, https://matplotlib.org/</dc:title>
     </cc:Agent>
    </dc:creator>
   </cc:Work>
  </rdf:RDF>
 </metadata>
 <defs>
  <style type="text/css">*{stroke-linejoin: round; stroke-linecap: butt}</style>
 </defs>
 <g id="figure_1">
  <g id="patch_1">
   <path d="M 0 614.274375 
L 1170.165625 614.274375 
L 1170.165625 0 
L 0 0 
z
" style="fill: #ffffff"/>
  </g>
  <g id="axes_1">
   <g id="patch_2">
    <path d="M 46.965625 274.318125 
L 1162.965625 274.318125 
L 1162.965625 22.318125 
L 46.965625 22.318125 
z
" style="fill: #ffffff"/>
   </g>
   <g id="matplotlib.axis_1">
    <g id="xtick_1">
     <g id="line2d_1">
      <path d="M 46.965625 274.318125 
L 46.965625 22.318125 
" clip-path="url(#p3a44d6544e)" style="fill: none; stroke-dasharray: 1.85,0.8; stroke-dashoffset: 0; stroke: #b0b0b0; stroke-width: 0.5"/>
     </g>
     <g id="line2d_2">
      <defs>
       <path id="m27c4213714" d="M 0 0 
L 0 3.5 
" style="stroke: #000000; stroke-width: 0.8"/>
      </defs>
      <g>
       <use xlink:href="#m27c4213714" x="46.965625" y="274.318125" style="stroke: #000000; stroke-width: 0.8"/>
      </g>
     </g>
     <g id="text_1">
      <!-- 0 -->
      <g transform="translate(43.784375 288.916562) scale(0.1 -0.1)">
       <defs>
        <path id="DejaVuSans-30" d="M 2034 4250 
Q 1547 4250 1301 3770 
Q 1056 3291 1056 2328 
Q 1056 1369 1301 889 
Q 1547 409 2034 409 
Q 2525 409 2770 889 
Q 3016 1369 3016 2328 
Q 3016 3291 2770 3770 
Q 2525 4250 2034 4250 
z
M 2034 4750 
Q 2819 4750 3233 4129 
Q 3647 3509 3647 2328 
Q 3647 1150 3233 529 
Q 2819 -91 2034 -91 
Q 1250 -91 836 529 
Q 422 1150 422 2328 
Q 422 3509 836 4129 
Q 1250 4750 2034 4750 
z
" transform="scale(0.015625)"/>
       </defs>
       <use xlink:href="#DejaVuSans-30"/>
      </g>
     </g>
    </g>
    <g id="xtick_2">
     <g id="line2d_3">
      <path d="M 291.971113 274.318125 
L 291.971113 22.318125 
" clip-path="url(#p3a44d6544e)" style="fill: none; stroke-dasharray: 1.85,0.8; stroke-dashoffset: 0; stroke: #b0b0b0; stroke-width: 0.5"/>
     </g>
     <g id="line2d_4">
      <g>
       <use xlink:href="#m27c4213714" x="291.971113" y="274.318125" style="stroke: #000000; stroke-width: 0.8"/>
      </g>
     </g>
     <g id="text_2">
      <!-- 2000 -->
      <g transform="translate(279.246113 288.916562) scale(0.1 -0.1)">
       <defs>
        <path id="DejaVuSans-32" d="M 1228 531 
L 3431 531 
L 3431 0 
L 469 0 
L 469 531 
Q 828 903 1448 1529 
Q 2069 2156 2228 2338 
Q 2531 2678 2651 2914 
Q 2772 3150 2772 3378 
Q 2772 3750 2511 3984 
Q 2250 4219 1831 4219 
Q 1534 4219 1204 4116 
Q 875 4013 500 3803 
L 500 4441 
Q 881 4594 1212 4672 
Q 1544 4750 1819 4750 
Q 2544 4750 2975 4387 
Q 3406 4025 3406 3419 
Q 3406 3131 3298 2873 
Q 3191 2616 2906 2266 
Q 2828 2175 2409 1742 
Q 1991 1309 1228 531 
z
" transform="scale(0.015625)"/>
       </defs>
       <use xlink:href="#DejaVuSans-32"/>
       <use xlink:href="#DejaVuSans-30" x="63.623047"/>
       <use xlink:href="#DejaVuSans-30" x="127.246094"/>
       <use xlink:href="#DejaVuSans-30" x="190.869141"/>
      </g>
     </g>
    </g>
    <g id="xtick_3">
     <g id="line2d_5">
      <path d="M 536.976602 274.318125 
L 536.976602 22.318125 
" clip-path="url(#p3a44d6544e)" style="fill: none; stroke-dasharray: 1.85,0.8; stroke-dashoffset: 0; stroke: #b0b0b0; stroke-width: 0.5"/>
     </g>
     <g id="line2d_6">
      <g>
       <use xlink:href="#m27c4213714" x="536.976602" y="274.318125" style="stroke: #000000; stroke-width: 0.8"/>
      </g>
     </g>
     <g id="text_3">
      <!-- 4000 -->
      <g transform="translate(524.251602 288.916562) scale(0.1 -0.1)">
       <defs>
        <path id="DejaVuSans-34" d="M 2419 4116 
L 825 1625 
L 2419 1625 
L 2419 4116 
z
M 2253 4666 
L 3047 4666 
L 3047 1625 
L 3713 1625 
L 3713 1100 
L 3047 1100 
L 3047 0 
L 2419 0 
L 2419 1100 
L 313 1100 
L 313 1709 
L 2253 4666 
z
" transform="scale(0.015625)"/>
       </defs>
       <use xlink:href="#DejaVuSans-34"/>
       <use xlink:href="#DejaVuSans-30" x="63.623047"/>
       <use xlink:href="#DejaVuSans-30" x="127.246094"/>
       <use xlink:href="#DejaVuSans-30" x="190.869141"/>
      </g>
     </g>
    </g>
    <g id="xtick_4">
     <g id="line2d_7">
      <path d="M 781.98209 274.318125 
L 781.98209 22.318125 
" clip-path="url(#p3a44d6544e)" style="fill: none; stroke-dasharray: 1.85,0.8; stroke-dashoffset: 0; stroke: #b0b0b0; stroke-width: 0.5"/>
     </g>
     <g id="line2d_8">
      <g>
       <use xlink:href="#m27c4213714" x="781.98209" y="274.318125" style="stroke: #000000; stroke-width: 0.8"/>
      </g>
     </g>
     <g id="text_4">
      <!-- 6000 -->
      <g transform="translate(769.25709 288.916562) scale(0.1 -0.1)">
       <defs>
        <path id="DejaVuSans-36" d="M 2113 2584 
Q 1688 2584 1439 2293 
Q 1191 2003 1191 1497 
Q 1191 994 1439 701 
Q 1688 409 2113 409 
Q 2538 409 2786 701 
Q 3034 994 3034 1497 
Q 3034 2003 2786 2293 
Q 2538 2584 2113 2584 
z
M 3366 4563 
L 3366 3988 
Q 3128 4100 2886 4159 
Q 2644 4219 2406 4219 
Q 1781 4219 1451 3797 
Q 1122 3375 1075 2522 
Q 1259 2794 1537 2939 
Q 1816 3084 2150 3084 
Q 2853 3084 3261 2657 
Q 3669 2231 3669 1497 
Q 3669 778 3244 343 
Q 2819 -91 2113 -91 
Q 1303 -91 875 529 
Q 447 1150 447 2328 
Q 447 3434 972 4092 
Q 1497 4750 2381 4750 
Q 2619 4750 2861 4703 
Q 3103 4656 3366 4563 
z
" transform="scale(0.015625)"/>
       </defs>
       <use xlink:href="#DejaVuSans-36"/>
       <use xlink:href="#DejaVuSans-30" x="63.623047"/>
       <use xlink:href="#DejaVuSans-30" x="127.246094"/>
       <use xlink:href="#DejaVuSans-30" x="190.869141"/>
      </g>
     </g>
    </g>
    <g id="xtick_5">
     <g id="line2d_9">
      <path d="M 1026.987579 274.318125 
L 1026.987579 22.318125 
" clip-path="url(#p3a44d6544e)" style="fill: none; stroke-dasharray: 1.85,0.8; stroke-dashoffset: 0; stroke: #b0b0b0; stroke-width: 0.5"/>
     </g>
     <g id="line2d_10">
      <g>
       <use xlink:href="#m27c4213714" x="1026.987579" y="274.318125" style="stroke: #000000; stroke-width: 0.8"/>
      </g>
     </g>
     <g id="text_5">
      <!-- 8000 -->
      <g transform="translate(1014.262579 288.916562) scale(0.1 -0.1)">
       <defs>
        <path id="DejaVuSans-38" d="M 2034 2216 
Q 1584 2216 1326 1975 
Q 1069 1734 1069 1313 
Q 1069 891 1326 650 
Q 1584 409 2034 409 
Q 2484 409 2743 651 
Q 3003 894 3003 1313 
Q 3003 1734 2745 1975 
Q 2488 2216 2034 2216 
z
M 1403 2484 
Q 997 2584 770 2862 
Q 544 3141 544 3541 
Q 544 4100 942 4425 
Q 1341 4750 2034 4750 
Q 2731 4750 3128 4425 
Q 3525 4100 3525 3541 
Q 3525 3141 3298 2862 
Q 3072 2584 2669 2484 
Q 3125 2378 3379 2068 
Q 3634 1759 3634 1313 
Q 3634 634 3220 271 
Q 2806 -91 2034 -91 
Q 1263 -91 848 271 
Q 434 634 434 1313 
Q 434 1759 690 2068 
Q 947 2378 1403 2484 
z
M 1172 3481 
Q 1172 3119 1398 2916 
Q 1625 2713 2034 2713 
Q 2441 2713 2670 2916 
Q 2900 3119 2900 3481 
Q 2900 3844 2670 4047 
Q 2441 4250 2034 4250 
Q 1625 4250 1398 4047 
Q 1172 3844 1172 3481 
z
" transform="scale(0.015625)"/>
       </defs>
       <use xlink:href="#DejaVuSans-38"/>
       <use xlink:href="#DejaVuSans-30" x="63.623047"/>
       <use xlink:href="#DejaVuSans-30" x="127.246094"/>
       <use xlink:href="#DejaVuSans-30" x="190.869141"/>
      </g>
     </g>
    </g>
    <g id="text_6">
     <!-- Time (ms) -->
     <g transform="translate(579.766406 302.594687) scale(0.1 -0.1)">
      <defs>
       <path id="DejaVuSans-54" d="M -19 4666 
L 3928 4666 
L 3928 4134 
L 2272 4134 
L 2272 0 
L 1638 0 
L 1638 4134 
L -19 4134 
L -19 4666 
z
" transform="scale(0.015625)"/>
       <path id="DejaVuSans-69" d="M 603 3500 
L 1178 3500 
L 1178 0 
L 603 0 
L 603 3500 
z
M 603 4863 
L 1178 4863 
L 1178 4134 
L 603 4134 
L 603 4863 
z
" transform="scale(0.015625)"/>
       <path id="DejaVuSans-6d" d="M 3328 2828 
Q 3544 3216 3844 3400 
Q 4144 3584 4550 3584 
Q 5097 3584 5394 3201 
Q 5691 2819 5691 2113 
L 5691 0 
L 5113 0 
L 5113 2094 
Q 5113 2597 4934 2840 
Q 4756 3084 4391 3084 
Q 3944 3084 3684 2787 
Q 3425 2491 3425 1978 
L 3425 0 
L 2847 0 
L 2847 2094 
Q 2847 2600 2669 2842 
Q 2491 3084 2119 3084 
Q 1678 3084 1418 2786 
Q 1159 2488 1159 1978 
L 1159 0 
L 581 0 
L 581 3500 
L 1159 3500 
L 1159 2956 
Q 1356 3278 1631 3431 
Q 1906 3584 2284 3584 
Q 2666 3584 2933 3390 
Q 3200 3197 3328 2828 
z
" transform="scale(0.015625)"/>
       <path id="DejaVuSans-65" d="M 3597 1894 
L 3597 1613 
L 953 1613 
Q 991 1019 1311 708 
Q 1631 397 2203 397 
Q 2534 397 2845 478 
Q 3156 559 3463 722 
L 3463 178 
Q 3153 47 2828 -22 
Q 2503 -91 2169 -91 
Q 1331 -91 842 396 
Q 353 884 353 1716 
Q 353 2575 817 3079 
Q 1281 3584 2069 3584 
Q 2775 3584 3186 3129 
Q 3597 2675 3597 1894 
z
M 3022 2063 
Q 3016 2534 2758 2815 
Q 2500 3097 2075 3097 
Q 1594 3097 1305 2825 
Q 1016 2553 972 2059 
L 3022 2063 
z
" transform="scale(0.015625)"/>
       <path id="DejaVuSans-20" transform="scale(0.015625)"/>
       <path id="DejaVuSans-28" d="M 1984 4856 
Q 1566 4138 1362 3434 
Q 1159 2731 1159 2009 
Q 1159 1288 1364 580 
Q 1569 -128 1984 -844 
L 1484 -844 
Q 1016 -109 783 600 
Q 550 1309 550 2009 
Q 550 2706 781 3412 
Q 1013 4119 1484 4856 
L 1984 4856 
z
" transform="scale(0.015625)"/>
       <path id="DejaVuSans-73" d="M 2834 3397 
L 2834 2853 
Q 2591 2978 2328 3040 
Q 2066 3103 1784 3103 
Q 1356 3103 1142 2972 
Q 928 2841 928 2578 
Q 928 2378 1081 2264 
Q 1234 2150 1697 2047 
L 1894 2003 
Q 2506 1872 2764 1633 
Q 3022 1394 3022 966 
Q 3022 478 2636 193 
Q 2250 -91 1575 -91 
Q 1294 -91 989 -36 
Q 684 19 347 128 
L 347 722 
Q 666 556 975 473 
Q 1284 391 1588 391 
Q 1994 391 2212 530 
Q 2431 669 2431 922 
Q 2431 1156 2273 1281 
Q 2116 1406 1581 1522 
L 1381 1569 
Q 847 1681 609 1914 
Q 372 2147 372 2553 
Q 372 3047 722 3315 
Q 1072 3584 1716 3584 
Q 2034 3584 2315 3537 
Q 2597 3491 2834 3397 
z
" transform="scale(0.015625)"/>
       <path id="DejaVuSans-29" d="M 513 4856 
L 1013 4856 
Q 1481 4119 1714 3412 
Q 1947 2706 1947 2009 
Q 1947 1309 1714 600 
Q 1481 -109 1013 -844 
L 513 -844 
Q 928 -128 1133 580 
Q 1338 1288 1338 2009 
Q 1338 2731 1133 3434 
Q 928 4138 513 4856 
z
" transform="scale(0.015625)"/>
      </defs>
      <use xlink:href="#DejaVuSans-54"/>
      <use xlink:href="#DejaVuSans-69" x="57.958984"/>
      <use xlink:href="#DejaVuSans-6d" x="85.742188"/>
      <use xlink:href="#DejaVuSans-65" x="183.154297"/>
      <use xlink:href="#DejaVuSans-20" x="244.677734"/>
      <use xlink:href="#DejaVuSans-28" x="276.464844"/>
      <use xlink:href="#DejaVuSans-6d" x="315.478516"/>
      <use xlink:href="#DejaVuSans-73" x="412.890625"/>
      <use xlink:href="#DejaVuSans-29" x="464.990234"/>
     </g>
    </g>
   </g>
   <g id="matplotlib.axis_2">
    <g id="ytick_1">
     <g id="line2d_11">
      <path d="M 46.965625 262.86358 
L 1162.965625 262.86358 
" clip-path="url(#p3a44d6544e)" style="fill: none; stroke-dasharray: 1.85,0.8; stroke-dashoffset: 0; stroke: #b0b0b0; stroke-width: 0.5"/>
     </g>
     <g id="line2d_12">
      <defs>
       <path id="m3eb0a48821" d="M 0 0 
L -3.5 0 
" style="stroke: #000000; stroke-width: 0.8"/>
      </defs>
      <g>
       <use xlink:href="#m3eb0a48821" x="46.965625" y="262.86358" style="stroke: #000000; stroke-width: 0.8"/>
      </g>
     </g>
     <g id="text_7">
      <!-- 0 -->
      <g transform="translate(33.603125 266.662798) scale(0.1 -0.1)">
       <use xlink:href="#DejaVuSans-30"/>
      </g>
     </g>
    </g>
    <g id="ytick_2">
     <g id="line2d_13">
      <path d="M 46.965625 217.045398 
L 1162.965625 217.045398 
" clip-path="url(#p3a44d6544e)" style="fill: none; stroke-dasharray: 1.85,0.8; stroke-dashoffset: 0; stroke: #b0b0b0; stroke-width: 0.5"/>
     </g>
     <g id="line2d_14">
      <g>
       <use xlink:href="#m3eb0a48821" x="46.965625" y="217.045398" style="stroke: #000000; stroke-width: 0.8"/>
      </g>
     </g>
     <g id="text_8">
      <!-- 20 -->
      <g transform="translate(27.240625 220.844616) scale(0.1 -0.1)">
       <use xlink:href="#DejaVuSans-32"/>
       <use xlink:href="#DejaVuSans-30" x="63.623047"/>
      </g>
     </g>
    </g>
    <g id="ytick_3">
     <g id="line2d_15">
      <path d="M 46.965625 171.227216 
L 1162.965625 171.227216 
" clip-path="url(#p3a44d6544e)" style="fill: none; stroke-dasharray: 1.85,0.8; stroke-dashoffset: 0; stroke: #b0b0b0; stroke-width: 0.5"/>
     </g>
     <g id="line2d_16">
      <g>
       <use xlink:href="#m3eb0a48821" x="46.965625" y="171.227216" style="stroke: #000000; stroke-width: 0.8"/>
      </g>
     </g>
     <g id="text_9">
      <!-- 40 -->
      <g transform="translate(27.240625 175.026435) scale(0.1 -0.1)">
       <use xlink:href="#DejaVuSans-34"/>
       <use xlink:href="#DejaVuSans-30" x="63.623047"/>
      </g>
     </g>
    </g>
    <g id="ytick_4">
     <g id="line2d_17">
      <path d="M 46.965625 125.409034 
L 1162.965625 125.409034 
" clip-path="url(#p3a44d6544e)" style="fill: none; stroke-dasharray: 1.85,0.8; stroke-dashoffset: 0; stroke: #b0b0b0; stroke-width: 0.5"/>
     </g>
     <g id="line2d_18">
      <g>
       <use xlink:href="#m3eb0a48821" x="46.965625" y="125.409034" style="stroke: #000000; stroke-width: 0.8"/>
      </g>
     </g>
     <g id="text_10">
      <!-- 60 -->
      <g transform="translate(27.240625 129.208253) scale(0.1 -0.1)">
       <use xlink:href="#DejaVuSans-36"/>
       <use xlink:href="#DejaVuSans-30" x="63.623047"/>
      </g>
     </g>
    </g>
    <g id="ytick_5">
     <g id="line2d_19">
      <path d="M 46.965625 79.590852 
L 1162.965625 79.590852 
" clip-path="url(#p3a44d6544e)" style="fill: none; stroke-dasharray: 1.85,0.8; stroke-dashoffset: 0; stroke: #b0b0b0; stroke-width: 0.5"/>
     </g>
     <g id="line2d_20">
      <g>
       <use xlink:href="#m3eb0a48821" x="46.965625" y="79.590852" style="stroke: #000000; stroke-width: 0.8"/>
      </g>
     </g>
     <g id="text_11">
      <!-- 80 -->
      <g transform="translate(27.240625 83.390071) scale(0.1 -0.1)">
       <use xlink:href="#DejaVuSans-38"/>
       <use xlink:href="#DejaVuSans-30" x="63.623047"/>
      </g>
     </g>
    </g>
    <g id="ytick_6">
     <g id="line2d_21">
      <path d="M 46.965625 33.77267 
L 1162.965625 33.77267 
" clip-path="url(#p3a44d6544e)" style="fill: none; stroke-dasharray: 1.85,0.8; stroke-dashoffset: 0; stroke: #b0b0b0; stroke-width: 0.5"/>
     </g>
     <g id="line2d_22">
      <g>
       <use xlink:href="#m3eb0a48821" x="46.965625" y="33.77267" style="stroke: #000000; stroke-width: 0.8"/>
      </g>
     </g>
     <g id="text_12">
      <!-- 100 -->
      <g transform="translate(20.878125 37.571889) scale(0.1 -0.1)">
       <defs>
        <path id="DejaVuSans-31" d="M 794 531 
L 1825 531 
L 1825 4091 
L 703 3866 
L 703 4441 
L 1819 4666 
L 2450 4666 
L 2450 531 
L 3481 531 
L 3481 0 
L 794 0 
L 794 531 
z
" transform="scale(0.015625)"/>
       </defs>
       <use xlink:href="#DejaVuSans-31"/>
       <use xlink:href="#DejaVuSans-30" x="63.623047"/>
       <use xlink:href="#DejaVuSans-30" x="127.246094"/>
      </g>
     </g>
    </g>
    <g id="text_13">
     <!-- Load -->
     <g transform="translate(14.798438 160.314219) rotate(-90) scale(0.1 -0.1)">
      <defs>
       <path id="DejaVuSans-4c" d="M 628 4666 
L 1259 4666 
L 1259 531 
L 3531 531 
L 3531 0 
L 628 0 
L 628 4666 
z
" transform="scale(0.015625)"/>
       <path id="DejaVuSans-6f" d="M 1959 3097 
Q 1497 3097 1228 2736 
Q 959 2375 959 1747 
Q 959 1119 1226 758 
Q 1494 397 1959 397 
Q 2419 397 2687 759 
Q 2956 1122 2956 1747 
Q 2956 2369 2687 2733 
Q 2419 3097 1959 3097 
z
M 1959 3584 
Q 2709 3584 3137 3096 
Q 3566 2609 3566 1747 
Q 3566 888 3137 398 
Q 2709 -91 1959 -91 
Q 1206 -91 779 398 
Q 353 888 353 1747 
Q 353 2609 779 3096 
Q 1206 3584 1959 3584 
z
" transform="scale(0.015625)"/>
       <path id="DejaVuSans-61" d="M 2194 1759 
Q 1497 1759 1228 1600 
Q 959 1441 959 1056 
Q 959 750 1161 570 
Q 1363 391 1709 391 
Q 2188 391 2477 730 
Q 2766 1069 2766 1631 
L 2766 1759 
L 2194 1759 
z
M 3341 1997 
L 3341 0 
L 2766 0 
L 2766 531 
Q 2569 213 2275 61 
Q 1981 -91 1556 -91 
Q 1019 -91 701 211 
Q 384 513 384 1019 
Q 384 1609 779 1909 
Q 1175 2209 1959 2209 
L 2766 2209 
L 2766 2266 
Q 2766 2663 2505 2880 
Q 2244 3097 1772 3097 
Q 1472 3097 1187 3025 
Q 903 2953 641 2809 
L 641 3341 
Q 956 3463 1253 3523 
Q 1550 3584 1831 3584 
Q 2591 3584 2966 3190 
Q 3341 2797 3341 1997 
z
" transform="scale(0.015625)"/>
       <path id="DejaVuSans-64" d="M 2906 2969 
L 2906 4863 
L 3481 4863 
L 3481 0 
L 2906 0 
L 2906 525 
Q 2725 213 2448 61 
Q 2172 -91 1784 -91 
Q 1150 -91 751 415 
Q 353 922 353 1747 
Q 353 2572 751 3078 
Q 1150 3584 1784 3584 
Q 2172 3584 2448 3432 
Q 2725 3281 2906 2969 
z
M 947 1747 
Q 947 1113 1208 752 
Q 1469 391 1925 391 
Q 2381 391 2643 752 
Q 2906 1113 2906 1747 
Q 2906 2381 2643 2742 
Q 2381 3103 1925 3103 
Q 1469 3103 1208 2742 
Q 947 2381 947 1747 
z
" transform="scale(0.015625)"/>
      </defs>
      <use xlink:href="#DejaVuSans-4c"/>
      <use xlink:href="#DejaVuSans-6f" x="53.962891"/>
      <use xlink:href="#DejaVuSans-61" x="115.144531"/>
      <use xlink:href="#DejaVuSans-64" x="176.423828"/>
     </g>
    </g>
   </g>
   <g id="line2d_23">
    <path d="M 46.965625 262.86358 
L 108.094494 262.86358 
L 108.094494 33.77267 
L 118.874736 33.77267 
L 118.874736 262.86358 
L 125.122376 262.86358 
L 125.122376 33.77267 
L 132.962551 33.77267 
L 132.962551 262.86358 
L 139.087689 262.86358 
L 139.087689 33.77267 
L 145.335329 33.77267 
L 145.335329 262.86358 
L 151.460466 262.86358 
L 151.460466 33.77267 
L 157.708106 33.77267 
L 157.708106 262.86358 
L 163.833243 262.86358 
L 163.833243 33.77267 
L 170.203386 33.77267 
L 170.203386 262.86358 
L 176.328523 262.86358 
L 176.328523 33.77267 
L 182.576163 33.77267 
L 182.576163 262.86358 
L 188.7013 262.86358 
L 188.7013 33.77267 
L 194.94894 33.77267 
L 194.94894 262.86358 
L 201.074077 262.86358 
L 201.074077 33.77267 
L 207.321717 33.77267 
L 207.321717 262.86358 
L 213.446854 262.86358 
L 213.446854 33.77267 
L 219.694494 33.77267 
L 219.694494 262.86358 
L 225.819632 262.86358 
L 225.819632 33.77267 
L 232.067272 33.77267 
L 232.067272 262.86358 
L 238.192409 262.86358 
L 238.192409 33.77267 
L 244.562551 33.77267 
L 244.562551 262.86358 
L 250.687689 262.86358 
L 250.687689 33.77267 
L 256.935329 33.77267 
L 256.935329 262.86358 
L 263.060466 262.86358 
L 263.060466 33.77267 
L 269.308106 33.77267 
L 269.308106 262.86358 
L 275.433243 262.86358 
L 275.433243 33.77267 
L 281.55838 33.77267 
L 281.55838 262.86358 
L 287.683517 262.86358 
L 287.683517 33.77267 
L 294.05366 33.77267 
L 294.05366 262.86358 
L 300.178797 262.86358 
L 300.178797 33.77267 
L 306.426437 33.77267 
L 306.426437 262.86358 
L 312.551575 262.86358 
L 312.551575 33.77267 
L 318.799214 33.77267 
L 318.799214 262.86358 
L 324.924352 262.86358 
L 324.924352 33.77267 
L 331.171992 33.77267 
L 331.171992 262.86358 
L 337.297129 262.86358 
L 337.297129 33.77267 
L 343.544769 33.77267 
L 343.544769 262.86358 
L 349.792409 262.86358 
L 349.792409 33.77267 
L 356.040049 33.77267 
L 356.040049 262.86358 
L 362.165186 262.86358 
L 362.165186 33.77267 
L 368.535329 33.77267 
L 368.535329 262.86358 
L 374.660466 262.86358 
L 374.660466 33.77267 
L 380.908106 33.77267 
L 380.908106 262.86358 
L 387.155746 262.86358 
L 387.155746 33.77267 
L 393.403386 33.77267 
L 393.403386 262.86358 
L 399.528523 262.86358 
L 399.528523 33.77267 
L 405.776163 33.77267 
L 405.776163 262.86358 
L 411.9013 262.86358 
L 411.9013 33.77267 
L 418.271443 33.77267 
L 418.271443 262.86358 
L 424.39658 262.86358 
L 424.39658 33.77267 
L 430.64422 33.77267 
L 430.64422 262.86358 
L 436.769357 262.86358 
L 436.769357 33.77267 
L 443.016997 33.77267 
L 443.016997 262.86358 
L 449.142134 262.86358 
L 449.142134 33.77267 
L 455.389774 33.77267 
L 455.389774 262.86358 
L 461.514911 262.86358 
L 461.514911 33.77267 
L 467.762551 33.77267 
L 467.762551 262.86358 
L 473.887689 262.86358 
L 473.887689 33.77267 
L 480.135329 33.77267 
L 480.135329 262.86358 
L 486.260466 262.86358 
L 486.260466 33.77267 
L 492.630609 33.77267 
L 492.630609 262.86358 
L 498.755746 262.86358 
L 498.755746 33.77267 
L 505.003386 33.77267 
L 505.003386 262.86358 
L 511.251026 262.86358 
L 511.251026 33.77267 
L 517.498666 33.77267 
L 517.498666 262.86358 
L 523.623803 262.86358 
L 523.623803 33.77267 
L 529.993946 33.77267 
L 529.993946 262.86358 
L 536.119083 262.86358 
L 536.119083 33.77267 
L 542.366723 33.77267 
L 542.366723 262.86358 
L 548.49186 262.86358 
L 548.49186 33.77267 
L 554.7395 33.77267 
L 554.7395 262.86358 
L 560.864637 262.86358 
L 560.864637 33.77267 
L 567.112277 33.77267 
L 567.112277 262.86358 
L 573.359917 262.86358 
L 573.359917 33.77267 
L 579.607557 33.77267 
L 579.607557 262.86358 
L 585.732694 262.86358 
L 585.732694 33.77267 
L 591.980334 33.77267 
L 591.980334 262.86358 
L 598.105471 262.86358 
L 598.105471 33.77267 
L 604.353111 33.77267 
L 604.353111 262.86358 
L 610.478248 262.86358 
L 610.478248 33.77267 
L 616.848391 33.77267 
L 616.848391 262.86358 
L 622.973528 262.86358 
L 622.973528 33.77267 
L 629.343671 33.77267 
L 629.343671 262.86358 
L 635.468808 262.86358 
L 635.468808 33.77267 
L 641.716448 33.77267 
L 641.716448 262.86358 
L 647.964088 262.86358 
L 647.964088 33.77267 
L 654.211728 33.77267 
L 654.211728 262.86358 
L 660.336865 262.86358 
L 660.336865 33.77267 
L 666.707008 33.77267 
L 666.707008 262.86358 
L 672.832145 262.86358 
L 672.832145 33.77267 
L 679.202288 33.77267 
L 679.202288 262.86358 
L 685.327425 262.86358 
L 685.327425 33.77267 
L 691.575065 33.77267 
L 691.575065 262.86358 
L 697.700202 262.86358 
L 697.700202 33.77267 
L 704.070345 33.77267 
L 704.070345 262.86358 
L 710.195482 262.86358 
L 710.195482 33.77267 
L 716.565625 33.77267 
L 716.565625 262.86358 
L 722.690762 262.86358 
L 722.690762 33.77267 
L 729.060905 33.77267 
L 729.060905 262.86358 
L 735.186042 262.86358 
L 735.186042 33.77267 
L 741.556185 33.77267 
L 741.556185 262.86358 
L 747.681322 262.86358 
L 747.681322 33.77267 
L 753.928962 33.77267 
L 753.928962 262.86358 
L 760.054099 262.86358 
L 760.054099 33.77267 
L 766.301739 33.77267 
L 766.301739 262.86358 
L 772.426876 262.86358 
L 772.426876 33.77267 
L 778.674516 33.77267 
L 778.674516 262.86358 
L 784.799654 262.86358 
L 784.799654 33.77267 
L 791.047293 33.77267 
L 791.047293 262.86358 
L 797.294933 262.86358 
L 797.294933 33.77267 
L 803.542573 33.77267 
L 803.542573 262.86358 
L 809.667711 262.86358 
L 809.667711 33.77267 
L 815.915351 33.77267 
L 815.915351 262.86358 
L 822.162991 262.86358 
L 822.162991 33.77267 
L 828.41063 33.77267 
L 828.41063 262.86358 
L 834.535768 262.86358 
L 834.535768 33.77267 
L 840.90591 33.77267 
L 840.90591 262.86358 
L 847.031048 262.86358 
L 847.031048 33.77267 
L 853.40119 33.77267 
L 853.40119 262.86358 
L 859.526328 262.86358 
L 859.526328 33.77267 
L 865.89647 33.77267 
L 865.89647 262.86358 
L 872.021607 262.86358 
L 872.021607 33.77267 
L 878.269247 33.77267 
L 878.269247 262.86358 
L 884.394385 262.86358 
L 884.394385 33.77267 
L 890.764527 33.77267 
L 890.764527 262.86358 
L 896.889665 262.86358 
L 896.889665 33.77267 
L 903.137304 33.77267 
L 903.137304 262.86358 
L 909.262442 262.86358 
L 909.262442 33.77267 
L 915.510082 33.77267 
L 915.510082 262.86358 
L 921.635219 262.86358 
L 921.635219 33.77267 
L 927.882859 33.77267 
L 927.882859 262.86358 
L 934.007996 262.86358 
L 934.007996 33.77267 
L 940.255636 33.77267 
L 940.255636 262.86358 
L 946.380773 262.86358 
L 946.380773 33.77267 
L 952.750916 33.77267 
L 952.750916 262.86358 
L 958.876053 262.86358 
L 958.876053 33.77267 
L 965.246196 33.77267 
L 965.246196 262.86358 
L 971.371333 262.86358 
L 971.371333 33.77267 
L 977.618973 33.77267 
L 977.618973 262.86358 
L 983.74411 262.86358 
L 983.74411 33.77267 
L 989.99175 33.77267 
L 989.99175 262.86358 
L 996.116887 262.86358 
L 996.116887 33.77267 
L 1002.364527 33.77267 
L 1002.364527 262.86358 
L 1008.489665 262.86358 
L 1008.489665 33.77267 
L 1014.737304 33.77267 
L 1014.737304 262.86358 
L 1020.862442 262.86358 
L 1020.862442 33.77267 
L 1027.110082 33.77267 
L 1027.110082 262.86358 
L 1033.235219 262.86358 
L 1033.235219 33.77267 
L 1039.482859 33.77267 
L 1039.482859 262.86358 
L 1045.607996 262.86358 
L 1045.607996 33.77267 
L 1051.855636 33.77267 
L 1051.855636 262.86358 
L 1057.980773 262.86358 
L 1057.980773 33.77267 
L 1064.228413 33.77267 
L 1064.228413 262.86358 
L 1070.35355 262.86358 
L 1070.35355 33.77267 
L 1076.723693 33.77267 
L 1076.723693 262.86358 
L 1082.84883 262.86358 
L 1082.84883 33.77267 
L 1089.09647 33.77267 
L 1089.09647 262.86358 
L 1095.221607 262.86358 
L 1095.221607 33.77267 
L 1101.59175 33.77267 
L 1101.59175 262.86358 
L 1162.965625 262.86358 
L 1162.965625 262.86358 
" clip-path="url(#p3a44d6544e)" style="fill: none; stroke: #1f77b4; stroke-width: 1.5; stroke-linecap: square"/>
   </g>
   <g id="line2d_24">
    <path d="M 45.985603 262.86358 
L 135.657612 262.86358 
L 137.617656 118.536307 
L 161.260685 118.536307 
L 166.038292 150.609034 
L 186.741256 150.609034 
L 188.578797 148.318125 
L 210.9968 148.318125 
L 212.099324 150.609034 
L 237.212387 150.609034 
L 238.804922 148.318125 
L 286.703495 148.318125 
L 287.80602 150.609034 
L 312.79658 150.609034 
L 314.389116 146.027216 
L 387.645757 146.027216 
L 388.748281 143.736307 
L 412.881322 143.736307 
L 413.983847 146.027216 
L 565.397239 146.027216 
L 567.23478 143.736307 
L 589.775285 143.736307 
L 590.877809 146.027216 
L 740.943671 146.027216 
L 742.168699 148.318125 
L 791.414802 148.318125 
L 792.517326 150.609034 
L 816.77287 150.609034 
L 817.875394 148.318125 
L 943.195702 148.318125 
L 945.400751 150.609034 
L 968.798775 150.609034 
L 969.778797 148.318125 
L 994.034341 148.318125 
L 995.014363 150.609034 
L 1069.986042 150.609034 
L 1071.088567 146.027216 
L 1120.212167 146.027216 
L 1121.314692 212.46358 
L 1145.570235 212.46358 
L 1147.775285 262.86358 
L 1163.823144 262.86358 
L 1163.823144 262.86358 
" clip-path="url(#p3a44d6544e)" style="fill: none; stroke: #ff7f0e; stroke-width: 1.5; stroke-linecap: square"/>
   </g>
   <g id="patch_3">
    <path d="M 46.965625 274.318125 
L 46.965625 22.318125 
" style="fill: none; stroke: #000000; stroke-width: 0.8; stroke-linejoin: miter; stroke-linecap: square"/>
   </g>
   <g id="patch_4">
    <path d="M 1162.965625 274.318125 
L 1162.965625 22.318125 
" style="fill: none; stroke: #000000; stroke-width: 0.8; stroke-linejoin: miter; stroke-linecap: square"/>
   </g>
   <g id="patch_5">
    <path d="M 46.965625 274.318125 
L 1162.965625 274.318125 
" style="fill: none; stroke: #000000; stroke-width: 0.8; stroke-linejoin: miter; stroke-linecap: square"/>
   </g>
   <g id="patch_6">
    <path d="M 46.965625 22.318125 
L 1162.965625 22.318125 
" style="fill: none; stroke: #000000; stroke-width: 0.8; stroke-linejoin: miter; stroke-linecap: square"/>
   </g>
   <g id="text_14">
    <!-- A100-PCIE-40GB - 50 ms load window -->
    <g transform="translate(491.418438 16.318125) scale(0.12 -0.12)">
     <defs>
      <path id="DejaVuSans-41" d="M 2188 4044 
L 1331 1722 
L 3047 1722 
L 2188 4044 
z
M 1831 4666 
L 2547 4666 
L 4325 0 
L 3669 0 
L 3244 1197 
L 1141 1197 
L 716 0 
L 50 0 
L 1831 4666 
z
" transform="scale(0.015625)"/>
      <path id="DejaVuSans-2d" d="M 313 2009 
L 1997 2009 
L 1997 1497 
L 313 1497 
L 313 2009 
z
" transform="scale(0.015625)"/>
      <path id="DejaVuSans-50" d="M 1259 4147 
L 1259 2394 
L 2053 2394 
Q 2494 2394 2734 2622 
Q 2975 2850 2975 3272 
Q 2975 3691 2734 3919 
Q 2494 4147 2053 4147 
L 1259 4147 
z
M 628 4666 
L 2053 4666 
Q 2838 4666 3239 4311 
Q 3641 3956 3641 3272 
Q 3641 2581 3239 2228 
Q 2838 1875 2053 1875 
L 1259 1875 
L 1259 0 
L 628 0 
L 628 4666 
z
" transform="scale(0.015625)"/>
      <path id="DejaVuSans-43" d="M 4122 4306 
L 4122 3641 
Q 3803 3938 3442 4084 
Q 3081 4231 2675 4231 
Q 1875 4231 1450 3742 
Q 1025 3253 1025 2328 
Q 1025 1406 1450 917 
Q 1875 428 2675 428 
Q 3081 428 3442 575 
Q 3803 722 4122 1019 
L 4122 359 
Q 3791 134 3420 21 
Q 3050 -91 2638 -91 
Q 1578 -91 968 557 
Q 359 1206 359 2328 
Q 359 3453 968 4101 
Q 1578 4750 2638 4750 
Q 3056 4750 3426 4639 
Q 3797 4528 4122 4306 
z
" transform="scale(0.015625)"/>
      <path id="DejaVuSans-49" d="M 628 4666 
L 1259 4666 
L 1259 0 
L 628 0 
L 628 4666 
z
" transform="scale(0.015625)"/>
      <path id="DejaVuSans-45" d="M 628 4666 
L 3578 4666 
L 3578 4134 
L 1259 4134 
L 1259 2753 
L 3481 2753 
L 3481 2222 
L 1259 2222 
L 1259 531 
L 3634 531 
L 3634 0 
L 628 0 
L 628 4666 
z
" transform="scale(0.015625)"/>
      <path id="DejaVuSans-47" d="M 3809 666 
L 3809 1919 
L 2778 1919 
L 2778 2438 
L 4434 2438 
L 4434 434 
Q 4069 175 3628 42 
Q 3188 -91 2688 -91 
Q 1594 -91 976 548 
Q 359 1188 359 2328 
Q 359 3472 976 4111 
Q 1594 4750 2688 4750 
Q 3144 4750 3555 4637 
Q 3966 4525 4313 4306 
L 4313 3634 
Q 3963 3931 3569 4081 
Q 3175 4231 2741 4231 
Q 1884 4231 1454 3753 
Q 1025 3275 1025 2328 
Q 1025 1384 1454 906 
Q 1884 428 2741 428 
Q 3075 428 3337 486 
Q 3600 544 3809 666 
z
" transform="scale(0.015625)"/>
      <path id="DejaVuSans-42" d="M 1259 2228 
L 1259 519 
L 2272 519 
Q 2781 519 3026 730 
Q 3272 941 3272 1375 
Q 3272 1813 3026 2020 
Q 2781 2228 2272 2228 
L 1259 2228 
z
M 1259 4147 
L 1259 2741 
L 2194 2741 
Q 2656 2741 2882 2914 
Q 3109 3088 3109 3444 
Q 3109 3797 2882 3972 
Q 2656 4147 2194 4147 
L 1259 4147 
z
M 628 4666 
L 2241 4666 
Q 2963 4666 3353 4366 
Q 3744 4066 3744 3513 
Q 3744 3084 3544 2831 
Q 3344 2578 2956 2516 
Q 3422 2416 3680 2098 
Q 3938 1781 3938 1306 
Q 3938 681 3513 340 
Q 3088 0 2303 0 
L 628 0 
L 628 4666 
z
" transform="scale(0.015625)"/>
      <path id="DejaVuSans-35" d="M 691 4666 
L 3169 4666 
L 3169 4134 
L 1269 4134 
L 1269 2991 
Q 1406 3038 1543 3061 
Q 1681 3084 1819 3084 
Q 2600 3084 3056 2656 
Q 3513 2228 3513 1497 
Q 3513 744 3044 326 
Q 2575 -91 1722 -91 
Q 1428 -91 1123 -41 
Q 819 9 494 109 
L 494 744 
Q 775 591 1075 516 
Q 1375 441 1709 441 
Q 2250 441 2565 725 
Q 2881 1009 2881 1497 
Q 2881 1984 2565 2268 
Q 2250 2553 1709 2553 
Q 1456 2553 1204 2497 
Q 953 2441 691 2322 
L 691 4666 
z
" transform="scale(0.015625)"/>
      <path id="DejaVuSans-6c" d="M 603 4863 
L 1178 4863 
L 1178 0 
L 603 0 
L 603 4863 
z
" transform="scale(0.015625)"/>
      <path id="DejaVuSans-77" d="M 269 3500 
L 844 3500 
L 1563 769 
L 2278 3500 
L 2956 3500 
L 3675 769 
L 4391 3500 
L 4966 3500 
L 4050 0 
L 3372 0 
L 2619 2869 
L 1863 0 
L 1184 0 
L 269 3500 
z
" transform="scale(0.015625)"/>
      <path id="DejaVuSans-6e" d="M 3513 2113 
L 3513 0 
L 2938 0 
L 2938 2094 
Q 2938 2591 2744 2837 
Q 2550 3084 2163 3084 
Q 1697 3084 1428 2787 
Q 1159 2491 1159 1978 
L 1159 0 
L 581 0 
L 581 3500 
L 1159 3500 
L 1159 2956 
Q 1366 3272 1645 3428 
Q 1925 3584 2291 3584 
Q 2894 3584 3203 3211 
Q 3513 2838 3513 2113 
z
" transform="scale(0.015625)"/>
     </defs>
     <use xlink:href="#DejaVuSans-41"/>
     <use xlink:href="#DejaVuSans-31" x="68.408203"/>
     <use xlink:href="#DejaVuSans-30" x="132.03125"/>
     <use xlink:href="#DejaVuSans-30" x="195.654297"/>
     <use xlink:href="#DejaVuSans-2d" x="259.277344"/>
     <use xlink:href="#DejaVuSans-50" x="295.361328"/>
     <use xlink:href="#DejaVuSans-43" x="355.664062"/>
     <use xlink:href="#DejaVuSans-49" x="425.488281"/>
     <use xlink:href="#DejaVuSans-45" x="454.980469"/>
     <use xlink:href="#DejaVuSans-2d" x="518.164062"/>
     <use xlink:href="#DejaVuSans-34" x="554.248047"/>
     <use xlink:href="#DejaVuSans-30" x="617.871094"/>
     <use xlink:href="#DejaVuSans-47" x="681.494141"/>
     <use xlink:href="#DejaVuSans-42" x="758.984375"/>
     <use xlink:href="#DejaVuSans-20" x="827.587891"/>
     <use xlink:href="#DejaVuSans-2d" x="859.375"/>
     <use xlink:href="#DejaVuSans-20" x="895.458984"/>
     <use xlink:href="#DejaVuSans-35" x="927.246094"/>
     <use xlink:href="#DejaVuSans-30" x="990.869141"/>
     <use xlink:href="#DejaVuSans-20" x="1054.492188"/>
     <use xlink:href="#DejaVuSans-6d" x="1086.279297"/>
     <use xlink:href="#DejaVuSans-73" x="1183.691406"/>
     <use xlink:href="#DejaVuSans-20" x="1235.791016"/>
     <use xlink:href="#DejaVuSans-6c" x="1267.578125"/>
     <use xlink:href="#DejaVuSans-6f" x="1295.361328"/>
     <use xlink:href="#DejaVuSans-61" x="1356.542969"/>
     <use xlink:href="#DejaVuSans-64" x="1417.822266"/>
     <use xlink:href="#DejaVuSans-20" x="1481.298828"/>
     <use xlink:href="#DejaVuSans-77" x="1513.085938"/>
     <use xlink:href="#DejaVuSans-69" x="1594.873047"/>
     <use xlink:href="#DejaVuSans-6e" x="1622.65625"/>
     <use xlink:href="#DejaVuSans-64" x="1686.035156"/>
     <use xlink:href="#DejaVuSans-6f" x="1749.511719"/>
     <use xlink:href="#DejaVuSans-77" x="1810.693359"/>
    </g>
   </g>
   <g id="legend_1">
    <g id="patch_7">
     <path d="M 53.965625 164.49625 
L 177.784375 164.49625 
Q 179.784375 164.49625 179.784375 162.49625 
L 179.784375 134.14 
Q 179.784375 132.14 177.784375 132.14 
L 53.965625 132.14 
Q 51.965625 132.14 51.965625 134.14 
L 51.965625 162.49625 
Q 51.965625 164.49625 53.965625 164.49625 
z
" style="fill: #ffffff; opacity: 0.8; stroke: #cccccc; stroke-linejoin: miter"/>
    </g>
    <g id="line2d_25">
     <path d="M 55.965625 140.238437 
L 65.965625 140.238437 
L 75.965625 140.238437 
" style="fill: none; stroke: #1f77b4; stroke-width: 1.5; stroke-linecap: square"/>
    </g>
    <g id="text_15">
     <!-- load -->
     <g transform="translate(83.965625 143.738437) scale(0.1 -0.1)">
      <use xlink:href="#DejaVuSans-6c"/>
      <use xlink:href="#DejaVuSans-6f" x="27.783203"/>
      <use xlink:href="#DejaVuSans-61" x="88.964844"/>
      <use xlink:href="#DejaVuSans-64" x="150.244141"/>
     </g>
    </g>
    <g id="line2d_26">
     <path d="M 55.965625 154.916562 
L 65.965625 154.916562 
L 75.965625 154.916562 
" style="fill: none; stroke: #ff7f0e; stroke-width: 1.5; stroke-linecap: square"/>
    </g>
    <g id="text_16">
     <!-- utilization.gpu [%] -->
     <g transform="translate(83.965625 158.416562) scale(0.1 -0.1)">
      <defs>
       <path id="DejaVuSans-75" d="M 544 1381 
L 544 3500 
L 1119 3500 
L 1119 1403 
Q 1119 906 1312 657 
Q 1506 409 1894 409 
Q 2359 409 2629 706 
Q 2900 1003 2900 1516 
L 2900 3500 
L 3475 3500 
L 3475 0 
L 2900 0 
L 2900 538 
Q 2691 219 2414 64 
Q 2138 -91 1772 -91 
Q 1169 -91 856 284 
Q 544 659 544 1381 
z
M 1991 3584 
L 1991 3584 
z
" transform="scale(0.015625)"/>
       <path id="DejaVuSans-74" d="M 1172 4494 
L 1172 3500 
L 2356 3500 
L 2356 3053 
L 1172 3053 
L 1172 1153 
Q 1172 725 1289 603 
Q 1406 481 1766 481 
L 2356 481 
L 2356 0 
L 1766 0 
Q 1100 0 847 248 
Q 594 497 594 1153 
L 594 3053 
L 172 3053 
L 172 3500 
L 594 3500 
L 594 4494 
L 1172 4494 
z
" transform="scale(0.015625)"/>
       <path id="DejaVuSans-7a" d="M 353 3500 
L 3084 3500 
L 3084 2975 
L 922 459 
L 3084 459 
L 3084 0 
L 275 0 
L 275 525 
L 2438 3041 
L 353 3041 
L 353 3500 
z
" transform="scale(0.015625)"/>
       <path id="DejaVuSans-2e" d="M 684 794 
L 1344 794 
L 1344 0 
L 684 0 
L 684 794 
z
" transform="scale(0.015625)"/>
       <path id="DejaVuSans-67" d="M 2906 1791 
Q 2906 2416 2648 2759 
Q 2391 3103 1925 3103 
Q 1463 3103 1205 2759 
Q 947 2416 947 1791 
Q 947 1169 1205 825 
Q 1463 481 1925 481 
Q 2391 481 2648 825 
Q 2906 1169 2906 1791 
z
M 3481 434 
Q 3481 -459 3084 -895 
Q 2688 -1331 1869 -1331 
Q 1566 -1331 1297 -1286 
Q 1028 -1241 775 -1147 
L 775 -588 
Q 1028 -725 1275 -790 
Q 1522 -856 1778 -856 
Q 2344 -856 2625 -561 
Q 2906 -266 2906 331 
L 2906 616 
Q 2728 306 2450 153 
Q 2172 0 1784 0 
Q 1141 0 747 490 
Q 353 981 353 1791 
Q 353 2603 747 3093 
Q 1141 3584 1784 3584 
Q 2172 3584 2450 3431 
Q 2728 3278 2906 2969 
L 2906 3500 
L 3481 3500 
L 3481 434 
z
" transform="scale(0.015625)"/>
       <path id="DejaVuSans-70" d="M 1159 525 
L 1159 -1331 
L 581 -1331 
L 581 3500 
L 1159 3500 
L 1159 2969 
Q 1341 3281 1617 3432 
Q 1894 3584 2278 3584 
Q 2916 3584 3314 3078 
Q 3713 2572 3713 1747 
Q 3713 922 3314 415 
Q 2916 -91 2278 -91 
Q 1894 -91 1617 61 
Q 1341 213 1159 525 
z
M 3116 1747 
Q 3116 2381 2855 2742 
Q 2594 3103 2138 3103 
Q 1681 3103 1420 2742 
Q 1159 2381 1159 1747 
Q 1159 1113 1420 752 
Q 1681 391 2138 391 
Q 2594 391 2855 752 
Q 3116 1113 3116 1747 
z
" transform="scale(0.015625)"/>
       <path id="DejaVuSans-5b" d="M 550 4863 
L 1875 4863 
L 1875 4416 
L 1125 4416 
L 1125 -397 
L 1875 -397 
L 1875 -844 
L 550 -844 
L 550 4863 
z
" transform="scale(0.015625)"/>
       <path id="DejaVuSans-25" d="M 4653 2053 
Q 4381 2053 4226 1822 
Q 4072 1591 4072 1178 
Q 4072 772 4226 539 
Q 4381 306 4653 306 
Q 4919 306 5073 539 
Q 5228 772 5228 1178 
Q 5228 1588 5073 1820 
Q 4919 2053 4653 2053 
z
M 4653 2450 
Q 5147 2450 5437 2106 
Q 5728 1763 5728 1178 
Q 5728 594 5436 251 
Q 5144 -91 4653 -91 
Q 4153 -91 3862 251 
Q 3572 594 3572 1178 
Q 3572 1766 3864 2108 
Q 4156 2450 4653 2450 
z
M 1428 4353 
Q 1159 4353 1004 4120 
Q 850 3888 850 3481 
Q 850 3069 1003 2837 
Q 1156 2606 1428 2606 
Q 1700 2606 1854 2837 
Q 2009 3069 2009 3481 
Q 2009 3884 1853 4118 
Q 1697 4353 1428 4353 
z
M 4250 4750 
L 4750 4750 
L 1831 -91 
L 1331 -91 
L 4250 4750 
z
M 1428 4750 
Q 1922 4750 2215 4408 
Q 2509 4066 2509 3481 
Q 2509 2891 2217 2550 
Q 1925 2209 1428 2209 
Q 931 2209 642 2551 
Q 353 2894 353 3481 
Q 353 4063 643 4406 
Q 934 4750 1428 4750 
z
" transform="scale(0.015625)"/>
       <path id="DejaVuSans-5d" d="M 1947 4863 
L 1947 -844 
L 622 -844 
L 622 -397 
L 1369 -397 
L 1369 4416 
L 622 4416 
L 622 4863 
L 1947 4863 
z
" transform="scale(0.015625)"/>
      </defs>
      <use xlink:href="#DejaVuSans-75"/>
      <use xlink:href="#DejaVuSans-74" x="63.378906"/>
      <use xlink:href="#DejaVuSans-69" x="102.587891"/>
      <use xlink:href="#DejaVuSans-6c" x="130.371094"/>
      <use xlink:href="#DejaVuSans-69" x="158.154297"/>
      <use xlink:href="#DejaVuSans-7a" x="185.9375"/>
      <use xlink:href="#DejaVuSans-61" x="238.427734"/>
      <use xlink:href="#DejaVuSans-74" x="299.707031"/>
      <use xlink:href="#DejaVuSans-69" x="338.916016"/>
      <use xlink:href="#DejaVuSans-6f" x="366.699219"/>
      <use xlink:href="#DejaVuSans-6e" x="427.880859"/>
      <use xlink:href="#DejaVuSans-2e" x="491.259766"/>
      <use xlink:href="#DejaVuSans-67" x="523.046875"/>
      <use xlink:href="#DejaVuSans-70" x="586.523438"/>
      <use xlink:href="#DejaVuSans-75" x="650"/>
      <use xlink:href="#DejaVuSans-20" x="713.378906"/>
      <use xlink:href="#DejaVuSans-5b" x="745.166016"/>
      <use xlink:href="#DejaVuSans-25" x="784.179688"/>
      <use xlink:href="#DejaVuSans-5d" x="879.199219"/>
     </g>
    </g>
   </g>
  </g>
  <g id="axes_2">
   <g id="patch_8">
    <path d="M 46.965625 576.718125 
L 1162.965625 576.718125 
L 1162.965625 324.718125 
L 46.965625 324.718125 
z
" style="fill: #ffffff"/>
   </g>
   <g id="matplotlib.axis_3">
    <g id="xtick_6">
     <g id="line2d_27">
      <path d="M 46.965625 576.718125 
L 46.965625 324.718125 
" clip-path="url(#p6a235b96d2)" style="fill: none; stroke-dasharray: 1.85,0.8; stroke-dashoffset: 0; stroke: #b0b0b0; stroke-width: 0.5"/>
     </g>
     <g id="line2d_28">
      <g>
       <use xlink:href="#m27c4213714" x="46.965625" y="576.718125" style="stroke: #000000; stroke-width: 0.8"/>
      </g>
     </g>
     <g id="text_17">
      <!-- 0 -->
      <g transform="translate(43.784375 591.316562) scale(0.1 -0.1)">
       <use xlink:href="#DejaVuSans-30"/>
      </g>
     </g>
    </g>
    <g id="xtick_7">
     <g id="line2d_29">
      <path d="M 291.971113 576.718125 
L 291.971113 324.718125 
" clip-path="url(#p6a235b96d2)" style="fill: none; stroke-dasharray: 1.85,0.8; stroke-dashoffset: 0; stroke: #b0b0b0; stroke-width: 0.5"/>
     </g>
     <g id="line2d_30">
      <g>
       <use xlink:href="#m27c4213714" x="291.971113" y="576.718125" style="stroke: #000000; stroke-width: 0.8"/>
      </g>
     </g>
     <g id="text_18">
      <!-- 2000 -->
      <g transform="translate(279.246113 591.316562) scale(0.1 -0.1)">
       <use xlink:href="#DejaVuSans-32"/>
       <use xlink:href="#DejaVuSans-30" x="63.623047"/>
       <use xlink:href="#DejaVuSans-30" x="127.246094"/>
       <use xlink:href="#DejaVuSans-30" x="190.869141"/>
      </g>
     </g>
    </g>
    <g id="xtick_8">
     <g id="line2d_31">
      <path d="M 536.976602 576.718125 
L 536.976602 324.718125 
" clip-path="url(#p6a235b96d2)" style="fill: none; stroke-dasharray: 1.85,0.8; stroke-dashoffset: 0; stroke: #b0b0b0; stroke-width: 0.5"/>
     </g>
     <g id="line2d_32">
      <g>
       <use xlink:href="#m27c4213714" x="536.976602" y="576.718125" style="stroke: #000000; stroke-width: 0.8"/>
      </g>
     </g>
     <g id="text_19">
      <!-- 4000 -->
      <g transform="translate(524.251602 591.316562) scale(0.1 -0.1)">
       <use xlink:href="#DejaVuSans-34"/>
       <use xlink:href="#DejaVuSans-30" x="63.623047"/>
       <use xlink:href="#DejaVuSans-30" x="127.246094"/>
       <use xlink:href="#DejaVuSans-30" x="190.869141"/>
      </g>
     </g>
    </g>
    <g id="xtick_9">
     <g id="line2d_33">
      <path d="M 781.98209 576.718125 
L 781.98209 324.718125 
" clip-path="url(#p6a235b96d2)" style="fill: none; stroke-dasharray: 1.85,0.8; stroke-dashoffset: 0; stroke: #b0b0b0; stroke-width: 0.5"/>
     </g>
     <g id="line2d_34">
      <g>
       <use xlink:href="#m27c4213714" x="781.98209" y="576.718125" style="stroke: #000000; stroke-width: 0.8"/>
      </g>
     </g>
     <g id="text_20">
      <!-- 6000 -->
      <g transform="translate(769.25709 591.316562) scale(0.1 -0.1)">
       <use xlink:href="#DejaVuSans-36"/>
       <use xlink:href="#DejaVuSans-30" x="63.623047"/>
       <use xlink:href="#DejaVuSans-30" x="127.246094"/>
       <use xlink:href="#DejaVuSans-30" x="190.869141"/>
      </g>
     </g>
    </g>
    <g id="xtick_10">
     <g id="line2d_35">
      <path d="M 1026.987579 576.718125 
L 1026.987579 324.718125 
" clip-path="url(#p6a235b96d2)" style="fill: none; stroke-dasharray: 1.85,0.8; stroke-dashoffset: 0; stroke: #b0b0b0; stroke-width: 0.5"/>
     </g>
     <g id="line2d_36">
      <g>
       <use xlink:href="#m27c4213714" x="1026.987579" y="576.718125" style="stroke: #000000; stroke-width: 0.8"/>
      </g>
     </g>
     <g id="text_21">
      <!-- 8000 -->
      <g transform="translate(1014.262579 591.316562) scale(0.1 -0.1)">
       <use xlink:href="#DejaVuSans-38"/>
       <use xlink:href="#DejaVuSans-30" x="63.623047"/>
       <use xlink:href="#DejaVuSans-30" x="127.246094"/>
       <use xlink:href="#DejaVuSans-30" x="190.869141"/>
      </g>
     </g>
    </g>
    <g id="text_22">
     <!-- Time (ms) -->
     <g transform="translate(579.766406 604.994687) scale(0.1 -0.1)">
      <use xlink:href="#DejaVuSans-54"/>
      <use xlink:href="#DejaVuSans-69" x="57.958984"/>
      <use xlink:href="#DejaVuSans-6d" x="85.742188"/>
      <use xlink:href="#DejaVuSans-65" x="183.154297"/>
      <use xlink:href="#DejaVuSans-20" x="244.677734"/>
      <use xlink:href="#DejaVuSans-28" x="276.464844"/>
      <use xlink:href="#DejaVuSans-6d" x="315.478516"/>
      <use xlink:href="#DejaVuSans-73" x="412.890625"/>
      <use xlink:href="#DejaVuSans-29" x="464.990234"/>
     </g>
    </g>
   </g>
   <g id="matplotlib.axis_4">
    <g id="ytick_7">
     <g id="line2d_37">
      <path d="M 46.965625 562.125467 
L 1162.965625 562.125467 
" clip-path="url(#p6a235b96d2)" style="fill: none; stroke-dasharray: 1.85,0.8; stroke-dashoffset: 0; stroke: #b0b0b0; stroke-width: 0.5"/>
     </g>
     <g id="line2d_38">
      <g>
       <use xlink:href="#m3eb0a48821" x="46.965625" y="562.125467" style="stroke: #000000; stroke-width: 0.8"/>
      </g>
     </g>
     <g id="text_23">
      <!-- 50 -->
      <g transform="translate(27.240625 565.924685) scale(0.1 -0.1)">
       <use xlink:href="#DejaVuSans-35"/>
       <use xlink:href="#DejaVuSans-30" x="63.623047"/>
      </g>
     </g>
    </g>
    <g id="ytick_8">
     <g id="line2d_39">
      <path d="M 46.965625 518.781366 
L 1162.965625 518.781366 
" clip-path="url(#p6a235b96d2)" style="fill: none; stroke-dasharray: 1.85,0.8; stroke-dashoffset: 0; stroke: #b0b0b0; stroke-width: 0.5"/>
     </g>
     <g id="line2d_40">
      <g>
       <use xlink:href="#m3eb0a48821" x="46.965625" y="518.781366" style="stroke: #000000; stroke-width: 0.8"/>
      </g>
     </g>
     <g id="text_24">
      <!-- 100 -->
      <g transform="translate(20.878125 522.580585) scale(0.1 -0.1)">
       <use xlink:href="#DejaVuSans-31"/>
       <use xlink:href="#DejaVuSans-30" x="63.623047"/>
       <use xlink:href="#DejaVuSans-30" x="127.246094"/>
      </g>
     </g>
    </g>
    <g id="ytick_9">
     <g id="line2d_41">
      <path d="M 46.965625 475.437266 
L 1162.965625 475.437266 
" clip-path="url(#p6a235b96d2)" style="fill: none; stroke-dasharray: 1.85,0.8; stroke-dashoffset: 0; stroke: #b0b0b0; stroke-width: 0.5"/>
     </g>
     <g id="line2d_42">
      <g>
       <use xlink:href="#m3eb0a48821" x="46.965625" y="475.437266" style="stroke: #000000; stroke-width: 0.8"/>
      </g>
     </g>
     <g id="text_25">
      <!-- 150 -->
      <g transform="translate(20.878125 479.236484) scale(0.1 -0.1)">
       <use xlink:href="#DejaVuSans-31"/>
       <use xlink:href="#DejaVuSans-35" x="63.623047"/>
       <use xlink:href="#DejaVuSans-30" x="127.246094"/>
      </g>
     </g>
    </g>
    <g id="ytick_10">
     <g id="line2d_43">
      <path d="M 46.965625 432.093165 
L 1162.965625 432.093165 
" clip-path="url(#p6a235b96d2)" style="fill: none; stroke-dasharray: 1.85,0.8; stroke-dashoffset: 0; stroke: #b0b0b0; stroke-width: 0.5"/>
     </g>
     <g id="line2d_44">
      <g>
       <use xlink:href="#m3eb0a48821" x="46.965625" y="432.093165" style="stroke: #000000; stroke-width: 0.8"/>
      </g>
     </g>
     <g id="text_26">
      <!-- 200 -->
      <g transform="translate(20.878125 435.892384) scale(0.1 -0.1)">
       <use xlink:href="#DejaVuSans-32"/>
       <use xlink:href="#DejaVuSans-30" x="63.623047"/>
       <use xlink:href="#DejaVuSans-30" x="127.246094"/>
      </g>
     </g>
    </g>
    <g id="ytick_11">
     <g id="line2d_45">
      <path d="M 46.965625 388.749064 
L 1162.965625 388.749064 
" clip-path="url(#p6a235b96d2)" style="fill: none; stroke-dasharray: 1.85,0.8; stroke-dashoffset: 0; stroke: #b0b0b0; stroke-width: 0.5"/>
     </g>
     <g id="line2d_46">
      <g>
       <use xlink:href="#m3eb0a48821" x="46.965625" y="388.749064" style="stroke: #000000; stroke-width: 0.8"/>
      </g>
     </g>
     <g id="text_27">
      <!-- 250 -->
      <g transform="translate(20.878125 392.548283) scale(0.1 -0.1)">
       <use xlink:href="#DejaVuSans-32"/>
       <use xlink:href="#DejaVuSans-35" x="63.623047"/>
       <use xlink:href="#DejaVuSans-30" x="127.246094"/>
      </g>
     </g>
    </g>
    <g id="ytick_12">
     <g id="line2d_47">
      <path d="M 46.965625 345.404964 
L 1162.965625 345.404964 
" clip-path="url(#p6a235b96d2)" style="fill: none; stroke-dasharray: 1.85,0.8; stroke-dashoffset: 0; stroke: #b0b0b0; stroke-width: 0.5"/>
     </g>
     <g id="line2d_48">
      <g>
       <use xlink:href="#m3eb0a48821" x="46.965625" y="345.404964" style="stroke: #000000; stroke-width: 0.8"/>
      </g>
     </g>
     <g id="text_28">
      <!-- 300 -->
      <g transform="translate(20.878125 349.204183) scale(0.1 -0.1)">
       <defs>
        <path id="DejaVuSans-33" d="M 2597 2516 
Q 3050 2419 3304 2112 
Q 3559 1806 3559 1356 
Q 3559 666 3084 287 
Q 2609 -91 1734 -91 
Q 1441 -91 1130 -33 
Q 819 25 488 141 
L 488 750 
Q 750 597 1062 519 
Q 1375 441 1716 441 
Q 2309 441 2620 675 
Q 2931 909 2931 1356 
Q 2931 1769 2642 2001 
Q 2353 2234 1838 2234 
L 1294 2234 
L 1294 2753 
L 1863 2753 
Q 2328 2753 2575 2939 
Q 2822 3125 2822 3475 
Q 2822 3834 2567 4026 
Q 2313 4219 1838 4219 
Q 1578 4219 1281 4162 
Q 984 4106 628 3988 
L 628 4550 
Q 988 4650 1302 4700 
Q 1616 4750 1894 4750 
Q 2613 4750 3031 4423 
Q 3450 4097 3450 3541 
Q 3450 3153 3228 2886 
Q 3006 2619 2597 2516 
z
" transform="scale(0.015625)"/>
       </defs>
       <use xlink:href="#DejaVuSans-33"/>
       <use xlink:href="#DejaVuSans-30" x="63.623047"/>
       <use xlink:href="#DejaVuSans-30" x="127.246094"/>
      </g>
     </g>
    </g>
    <g id="text_29">
     <!-- Power [W] -->
     <g transform="translate(14.798438 476.266562) rotate(-90) scale(0.1 -0.1)">
      <defs>
       <path id="DejaVuSans-72" d="M 2631 2963 
Q 2534 3019 2420 3045 
Q 2306 3072 2169 3072 
Q 1681 3072 1420 2755 
Q 1159 2438 1159 1844 
L 1159 0 
L 581 0 
L 581 3500 
L 1159 3500 
L 1159 2956 
Q 1341 3275 1631 3429 
Q 1922 3584 2338 3584 
Q 2397 3584 2469 3576 
Q 2541 3569 2628 3553 
L 2631 2963 
z
" transform="scale(0.015625)"/>
       <path id="DejaVuSans-57" d="M 213 4666 
L 850 4666 
L 1831 722 
L 2809 4666 
L 3519 4666 
L 4500 722 
L 5478 4666 
L 6119 4666 
L 4947 0 
L 4153 0 
L 3169 4050 
L 2175 0 
L 1381 0 
L 213 4666 
z
" transform="scale(0.015625)"/>
      </defs>
      <use xlink:href="#DejaVuSans-50"/>
      <use xlink:href="#DejaVuSans-6f" x="56.677734"/>
      <use xlink:href="#DejaVuSans-77" x="117.859375"/>
      <use xlink:href="#DejaVuSans-65" x="199.646484"/>
      <use xlink:href="#DejaVuSans-72" x="261.169922"/>
      <use xlink:href="#DejaVuSans-20" x="302.283203"/>
      <use xlink:href="#DejaVuSans-5b" x="334.070312"/>
      <use xlink:href="#DejaVuSans-57" x="373.083984"/>
      <use xlink:href="#DejaVuSans-5d" x="471.960938"/>
     </g>
    </g>
   </g>
   <g id="line2d_49">
    <path d="M 45.985603 562.619589 
L 63.503495 562.532901 
L 64.60602 560.322352 
L 75.631267 560.322352 
L 76.978797 559.888911 
L 88.371553 559.888911 
L 89.59658 560.148976 
L 101.111838 560.148976 
L 102.09186 560.322352 
L 113.607118 560.322352 
L 114.709643 462.043938 
L 125.612387 462.043938 
L 127.08242 482.727743 
L 138.597678 482.727743 
L 139.945208 501.539083 
L 150.970455 501.539083 
L 152.685493 469.221722 
L 161.260685 469.221722 
L 166.038292 421.959314 
L 177.186042 421.959314 
L 178.41107 416.263899 
L 189.558819 416.263899 
L 190.783847 404.838395 
L 201.931596 404.838395 
L 203.279127 394.565843 
L 214.671882 394.565843 
L 216.019412 384.379979 
L 227.044659 384.379979 
L 229.617217 384.544687 
L 239.907447 384.544687 
L 241.254977 378.086416 
L 252.52523 378.086416 
L 253.87276 369.452271 
L 265.143012 369.452271 
L 266.490543 361.078191 
L 277.638292 361.078191 
L 278.740817 358.997674 
L 290.501081 358.997674 
L 291.848611 351.741871 
L 302.99636 351.741871 
L 304.221388 349.817393 
L 315.369138 349.817393 
L 316.839171 352.409371 
L 327.864418 352.409371 
L 329.33445 352.738786 
L 340.849708 352.738786 
L 342.074736 348.985187 
L 353.099983 348.985187 
L 354.692519 349.739374 
L 366.085274 349.739374 
L 367.555307 357.073196 
L 378.580554 357.073196 
L 380.050587 342.734967 
L 391.320839 342.734967 
L 392.790872 350.068789 
L 403.816119 350.068789 
L 405.286152 336.17267 
L 416.678907 336.17267 
L 418.026437 352.331351 
L 428.806679 352.331351 
L 430.521717 345.153568 
L 441.669467 345.153568 
L 443.1395 342.917013 
L 454.28725 342.917013 
L 455.757283 351.655183 
L 467.150038 351.655183 
L 468.620071 385.680302 
L 479.76782 385.680302 
L 481.115351 403.364695 
L 492.753111 403.364695 
L 493.978139 429.301805 
L 505.003386 429.301805 
L 506.350916 434.867187 
L 517.743671 434.867187 
L 518.968699 447.809736 
L 530.238951 447.809736 
L 531.708984 459.01852 
L 542.24422 459.01852 
L 543.836756 472.533211 
L 555.474516 472.533211 
L 556.944549 480.283136 
L 568.337304 480.283136 
L 569.562332 488.215106 
L 580.710082 488.215106 
L 582.180115 496.632531 
L 593.57287 496.632531 
L 594.797897 500.698207 
L 606.06815 500.698207 
L 607.41568 508.136055 
L 618.808435 508.136055 
L 620.033463 512.201732 
L 631.303715 512.201732 
L 632.651245 516.154714 
L 644.166503 516.154714 
L 645.391531 519.604904 
L 656.53928 519.604904 
L 657.764308 519.448865 
L 669.03456 519.448865 
L 670.504593 522.725679 
L 681.652343 522.725679 
L 682.999873 527.302816 
L 694.392628 527.302816 
L 695.617656 527.120771 
L 706.642903 527.120771 
L 708.112936 531.013071 
L 719.383188 531.013071 
L 720.853221 529.998819 
L 729.550916 529.998819 
L 730.775943 531.255798 
L 744.373748 531.255798 
L 745.843781 531.931966 
L 756.991531 531.931966 
L 758.461564 532.365407 
L 769.976821 532.365407 
L 771.079346 532.686154 
L 782.349599 532.686154 
L 783.697129 533.622386 
L 795.33489 533.622386 
L 796.437414 536.266376 
L 807.707667 536.266376 
L 809.055197 538.693646 
L 820.447952 538.693646 
L 821.795482 539.205106 
L 833.065735 539.205106 
L 834.535768 540.401403 
L 846.051026 540.401403 
L 847.15355 541.909778 
L 869.939061 541.909778 
L 870.919083 542.767991 
L 883.659368 542.767991 
L 885.006898 541.667051 
L 896.277151 541.667051 
L 897.747184 521.295324 
L 908.894933 521.295324 
L 910.242464 494.976786 
L 921.757722 494.976786 
L 922.982749 475.10785 
L 934.130499 475.10785 
L 935.600532 451.849406 
L 945.400751 451.849406 
L 949.443342 395.562757 
L 959.366064 395.562757 
L 961.081102 418.223053 
L 972.59636 418.223053 
L 973.821388 393.620941 
L 985.09164 393.620941 
L 986.561673 385.376893 
L 997.58692 385.376893 
L 999.179456 378.909954 
L 1010.204703 378.909954 
L 1011.797239 365.93273 
L 1022.944988 365.93273 
L 1024.170016 361.338255 
L 1035.562771 361.338255 
L 1037.155307 351.395119 
L 1048.303056 351.395119 
L 1049.895592 342.405552 
L 1060.920839 342.405552 
L 1062.513375 350.658269 
L 1073.783627 350.658269 
L 1075.25366 347.069377 
L 1086.156404 347.069377 
L 1087.74894 343.653862 
L 1098.89669 343.653862 
L 1100.366723 339.423478 
L 1111.514472 339.423478 
L 1112.984505 542.421239 
L 1124.132255 542.421239 
L 1125.23478 541.667051 
L 1136.995043 541.667051 
L 1138.097568 540.904195 
L 1147.775285 540.904195 
L 1151.327864 539.62121 
L 1161.8631 539.62121 
L 1162.843122 541.502344 
L 1163.823144 541.502344 
L 1163.823144 541.502344 
" clip-path="url(#p6a235b96d2)" style="fill: none; stroke: #1f77b4; stroke-width: 1.5; stroke-linecap: square"/>
   </g>
   <g id="patch_9">
    <path d="M 46.965625 576.718125 
L 46.965625 324.718125 
" style="fill: none; stroke: #000000; stroke-width: 0.8; stroke-linejoin: miter; stroke-linecap: square"/>
   </g>
   <g id="patch_10">
    <path d="M 1162.965625 576.718125 
L 1162.965625 324.718125 
" style="fill: none; stroke: #000000; stroke-width: 0.8; stroke-linejoin: miter; stroke-linecap: square"/>
   </g>
   <g id="patch_11">
    <path d="M 46.965625 576.718125 
L 1162.965625 576.718125 
" style="fill: none; stroke: #000000; stroke-width: 0.8; stroke-linejoin: miter; stroke-linecap: square"/>
   </g>
   <g id="patch_12">
    <path d="M 46.965625 324.718125 
L 1162.965625 324.718125 
" style="fill: none; stroke: #000000; stroke-width: 0.8; stroke-linejoin: miter; stroke-linecap: square"/>
   </g>
  </g>
 </g>
 <defs>
  <clipPath id="p3a44d6544e">
   <rect x="46.965625" y="22.318125" width="1116" height="252"/>
  </clipPath>
  <clipPath id="p6a235b96d2">
   <rect x="46.965625" y="324.718125" width="1116" height="252"/>
  </clipPath>
 </defs>
</svg>
